<?xml version="1.0" encoding="UTF-8" standalone="no"?>
<!DOCTYPE svg PUBLIC "-//W3C//DTD SVG 1.1//EN"
 "http://www.w3.org/Graphics/SVG/1.1/DTD/svg11.dtd">
<!-- Generated by graphviz version 2.50.0 (0)
 -->
<!-- Title: snakemake_dag Pages: 1 -->
<svg width="1004pt" height="548pt"
 viewBox="0.00 0.00 1004.00 548.00" xmlns="http://www.w3.org/2000/svg" xmlns:xlink="http://www.w3.org/1999/xlink">
<g id="graph0" class="graph" transform="scale(1 1) rotate(0) translate(4 544)">
<title>snakemake_dag</title>
<polygon fill="white" stroke="transparent" points="-4,4 -4,-544 1000,-544 1000,4 -4,4"/>
<!-- 0 -->
<g id="node1" class="node">
<title>0</title>
<path fill="none" stroke="#56d88a" stroke-width="2" d="M510.5,-36C510.5,-36 480.5,-36 480.5,-36 474.5,-36 468.5,-30 468.5,-24 468.5,-24 468.5,-12 468.5,-12 468.5,-6 474.5,0 480.5,0 480.5,0 510.5,0 510.5,0 516.5,0 522.5,-6 522.5,-12 522.5,-12 522.5,-24 522.5,-24 522.5,-30 516.5,-36 510.5,-36"/>
<text text-anchor="middle" x="495.5" y="-15.5" font-family="sans" font-size="10.00">all</text>
</g>
<!-- 1 -->
<g id="node2" class="node">
<title>1</title>
<path fill="none" stroke="#88d856" stroke-width="2" d="M523,-108C523,-108 468,-108 468,-108 462,-108 456,-102 456,-96 456,-96 456,-84 456,-84 456,-78 462,-72 468,-72 468,-72 523,-72 523,-72 529,-72 535,-78 535,-84 535,-84 535,-96 535,-96 535,-102 529,-108 523,-108"/>
<text text-anchor="middle" x="495.5" y="-87.5" font-family="sans" font-size="10.00">analyse_stat</text>
</g>
<!-- 1&#45;&gt;0 -->
<g id="edge1" class="edge">
<title>1&#45;&gt;0</title>
<path fill="none" stroke="grey" stroke-width="2" d="M495.5,-71.7C495.5,-63.98 495.5,-54.71 495.5,-46.11"/>
<polygon fill="grey" stroke="grey" stroke-width="2" points="499,-46.1 495.5,-36.1 492,-46.1 499,-46.1"/>
</g>
<!-- 2 -->
<g id="node3" class="node">
<title>2</title>
<path fill="none" stroke="#bed856" stroke-width="2" d="M321,-180C321,-180 286,-180 286,-180 280,-180 274,-174 274,-168 274,-168 274,-156 274,-156 274,-150 280,-144 286,-144 286,-144 321,-144 321,-144 327,-144 333,-150 333,-156 333,-156 333,-168 333,-168 333,-174 327,-180 321,-180"/>
<text text-anchor="middle" x="303.5" y="-159.5" font-family="sans" font-size="10.00">counting</text>
</g>
<!-- 2&#45;&gt;1 -->
<g id="edge2" class="edge">
<title>2&#45;&gt;1</title>
<path fill="none" stroke="grey" stroke-width="2" d="M333.21,-147.77C336.33,-146.46 339.47,-145.18 342.5,-144 376.73,-130.63 415.9,-117.1 446.03,-107.05"/>
<polygon fill="grey" stroke="grey" stroke-width="2" points="447.5,-110.25 455.89,-103.78 445.29,-103.61 447.5,-110.25"/>
</g>
<!-- 3 -->
<g id="node4" class="node">
<title>3</title>
<path fill="none" stroke="#59d856" stroke-width="2" d="M511.5,-252C511.5,-252 481.5,-252 481.5,-252 475.5,-252 469.5,-246 469.5,-240 469.5,-240 469.5,-228 469.5,-228 469.5,-222 475.5,-216 481.5,-216 481.5,-216 511.5,-216 511.5,-216 517.5,-216 523.5,-222 523.5,-228 523.5,-228 523.5,-240 523.5,-240 523.5,-246 517.5,-252 511.5,-252"/>
<text text-anchor="middle" x="496.5" y="-231.5" font-family="sans" font-size="10.00">gffTogtf</text>
</g>
<!-- 3&#45;&gt;2 -->
<g id="edge8" class="edge">
<title>3&#45;&gt;2</title>
<path fill="none" stroke="grey" stroke-width="2" d="M469.27,-220.35C465.67,-218.82 462.02,-217.33 458.5,-216 407.99,-196.94 393.1,-198.81 342.5,-180 342.4,-179.96 342.31,-179.93 342.21,-179.89"/>
<polygon fill="grey" stroke="grey" stroke-width="2" points="343.76,-176.74 333.17,-176.34 341.2,-183.25 343.76,-176.74"/>
</g>
<!-- 9 -->
<g id="node10" class="node">
<title>9</title>
<path fill="none" stroke="#bed856" stroke-width="2" d="M398,-180C398,-180 363,-180 363,-180 357,-180 351,-174 351,-168 351,-168 351,-156 351,-156 351,-150 357,-144 363,-144 363,-144 398,-144 398,-144 404,-144 410,-150 410,-156 410,-156 410,-168 410,-168 410,-174 404,-180 398,-180"/>
<text text-anchor="middle" x="380.5" y="-159.5" font-family="sans" font-size="10.00">counting</text>
</g>
<!-- 3&#45;&gt;9 -->
<g id="edge14" class="edge">
<title>3&#45;&gt;9</title>
<path fill="none" stroke="grey" stroke-width="2" d="M469.3,-216.59C453.93,-207.31 434.5,-195.59 417.74,-185.47"/>
<polygon fill="grey" stroke="grey" stroke-width="2" points="419.11,-182.21 408.74,-180.04 415.49,-188.2 419.11,-182.21"/>
</g>
<!-- 15 -->
<g id="node16" class="node">
<title>15</title>
<path fill="none" stroke="#bed856" stroke-width="2" d="M475,-180C475,-180 440,-180 440,-180 434,-180 428,-174 428,-168 428,-168 428,-156 428,-156 428,-150 434,-144 440,-144 440,-144 475,-144 475,-144 481,-144 487,-150 487,-156 487,-156 487,-168 487,-168 487,-174 481,-180 475,-180"/>
<text text-anchor="middle" x="457.5" y="-159.5" font-family="sans" font-size="10.00">counting</text>
</g>
<!-- 3&#45;&gt;15 -->
<g id="edge20" class="edge">
<title>3&#45;&gt;15</title>
<path fill="none" stroke="grey" stroke-width="2" d="M486.86,-215.7C482.37,-207.64 476.94,-197.89 471.98,-188.98"/>
<polygon fill="grey" stroke="grey" stroke-width="2" points="474.95,-187.14 467.03,-180.1 468.84,-190.54 474.95,-187.14"/>
</g>
<!-- 21 -->
<g id="node22" class="node">
<title>21</title>
<path fill="none" stroke="#bed856" stroke-width="2" d="M552,-180C552,-180 517,-180 517,-180 511,-180 505,-174 505,-168 505,-168 505,-156 505,-156 505,-150 511,-144 517,-144 517,-144 552,-144 552,-144 558,-144 564,-150 564,-156 564,-156 564,-168 564,-168 564,-174 558,-180 552,-180"/>
<text text-anchor="middle" x="534.5" y="-159.5" font-family="sans" font-size="10.00">counting</text>
</g>
<!-- 3&#45;&gt;21 -->
<g id="edge26" class="edge">
<title>3&#45;&gt;21</title>
<path fill="none" stroke="grey" stroke-width="2" d="M505.89,-215.7C510.26,-207.64 515.56,-197.89 520.4,-188.98"/>
<polygon fill="grey" stroke="grey" stroke-width="2" points="523.52,-190.56 525.21,-180.1 517.37,-187.22 523.52,-190.56"/>
</g>
<!-- 27 -->
<g id="node28" class="node">
<title>27</title>
<path fill="none" stroke="#bed856" stroke-width="2" d="M629,-180C629,-180 594,-180 594,-180 588,-180 582,-174 582,-168 582,-168 582,-156 582,-156 582,-150 588,-144 594,-144 594,-144 629,-144 629,-144 635,-144 641,-150 641,-156 641,-156 641,-168 641,-168 641,-174 635,-180 629,-180"/>
<text text-anchor="middle" x="611.5" y="-159.5" font-family="sans" font-size="10.00">counting</text>
</g>
<!-- 3&#45;&gt;27 -->
<g id="edge32" class="edge">
<title>3&#45;&gt;27</title>
<path fill="none" stroke="grey" stroke-width="2" d="M523.75,-216.41C538.88,-207.2 557.92,-195.61 574.39,-185.59"/>
<polygon fill="grey" stroke="grey" stroke-width="2" points="576.52,-188.39 583.24,-180.2 572.88,-182.41 576.52,-188.39"/>
</g>
<!-- 33 -->
<g id="node34" class="node">
<title>33</title>
<path fill="none" stroke="#bed856" stroke-width="2" d="M706,-180C706,-180 671,-180 671,-180 665,-180 659,-174 659,-168 659,-168 659,-156 659,-156 659,-150 665,-144 671,-144 671,-144 706,-144 706,-144 712,-144 718,-150 718,-156 718,-156 718,-168 718,-168 718,-174 712,-180 706,-180"/>
<text text-anchor="middle" x="688.5" y="-159.5" font-family="sans" font-size="10.00">counting</text>
</g>
<!-- 3&#45;&gt;33 -->
<g id="edge38" class="edge">
<title>3&#45;&gt;33</title>
<path fill="none" stroke="grey" stroke-width="2" d="M523.81,-219.97C527.05,-218.56 530.33,-217.21 533.5,-216 581.45,-197.7 597.73,-198.93 649.12,-180.29"/>
<polygon fill="grey" stroke="grey" stroke-width="2" points="650.61,-183.47 658.77,-176.71 648.18,-176.91 650.61,-183.47"/>
</g>
<!-- 4 -->
<g id="node5" class="node">
<title>4</title>
<path fill="none" stroke="#d85656" stroke-width="2" d="M234.5,-252C234.5,-252 188.5,-252 188.5,-252 182.5,-252 176.5,-246 176.5,-240 176.5,-240 176.5,-228 176.5,-228 176.5,-222 182.5,-216 188.5,-216 188.5,-216 234.5,-216 234.5,-216 240.5,-216 246.5,-222 246.5,-228 246.5,-228 246.5,-240 246.5,-240 246.5,-246 240.5,-252 234.5,-252"/>
<text text-anchor="middle" x="211.5" y="-231.5" font-family="sans" font-size="10.00">samTobam</text>
</g>
<!-- 4&#45;&gt;2 -->
<g id="edge9" class="edge">
<title>4&#45;&gt;2</title>
<path fill="none" stroke="grey" stroke-width="2" d="M234.24,-215.7C245.94,-206.8 260.36,-195.82 273.01,-186.2"/>
<polygon fill="grey" stroke="grey" stroke-width="2" points="275.18,-188.94 281.02,-180.1 270.94,-183.37 275.18,-188.94"/>
</g>
<!-- 5 -->
<g id="node6" class="node">
<title>5</title>
<path fill="none" stroke="#d8bc56" stroke-width="2" d="M214,-324C214,-324 179,-324 179,-324 173,-324 167,-318 167,-312 167,-312 167,-300 167,-300 167,-294 173,-288 179,-288 179,-288 214,-288 214,-288 220,-288 226,-294 226,-300 226,-300 226,-312 226,-312 226,-318 220,-324 214,-324"/>
<text text-anchor="middle" x="196.5" y="-303.5" font-family="sans" font-size="10.00">mapping</text>
</g>
<!-- 5&#45;&gt;4 -->
<g id="edge10" class="edge">
<title>5&#45;&gt;4</title>
<path fill="none" stroke="grey" stroke-width="2" d="M200.21,-287.7C201.86,-279.98 203.85,-270.71 205.69,-262.11"/>
<polygon fill="grey" stroke="grey" stroke-width="2" points="209.16,-262.62 207.83,-252.1 202.32,-261.15 209.16,-262.62"/>
</g>
<!-- 6 -->
<g id="node7" class="node">
<title>6</title>
<path fill="none" stroke="#56c1d8" stroke-width="2" d="M185.5,-396C185.5,-396 147.5,-396 147.5,-396 141.5,-396 135.5,-390 135.5,-384 135.5,-384 135.5,-372 135.5,-372 135.5,-366 141.5,-360 147.5,-360 147.5,-360 185.5,-360 185.5,-360 191.5,-360 197.5,-366 197.5,-372 197.5,-372 197.5,-384 197.5,-384 197.5,-390 191.5,-396 185.5,-396"/>
<text text-anchor="middle" x="166.5" y="-375.5" font-family="sans" font-size="10.00">trimming</text>
</g>
<!-- 6&#45;&gt;5 -->
<g id="edge11" class="edge">
<title>6&#45;&gt;5</title>
<path fill="none" stroke="grey" stroke-width="2" d="M173.92,-359.7C177.29,-351.81 181.37,-342.3 185.12,-333.55"/>
<polygon fill="grey" stroke="grey" stroke-width="2" points="188.45,-334.67 189.17,-324.1 182.01,-331.92 188.45,-334.67"/>
</g>
<!-- 7 -->
<g id="node8" class="node">
<title>7</title>
<path fill="none" stroke="#56d8c1" stroke-width="2" d="M139,-468C139,-468 32,-468 32,-468 26,-468 20,-462 20,-456 20,-456 20,-444 20,-444 20,-438 26,-432 32,-432 32,-432 139,-432 139,-432 145,-432 151,-438 151,-444 151,-444 151,-456 151,-456 151,-462 145,-468 139,-468"/>
<text text-anchor="middle" x="85.5" y="-447.5" font-family="sans" font-size="10.00">compresion_sequences</text>
</g>
<!-- 7&#45;&gt;6 -->
<g id="edge12" class="edge">
<title>7&#45;&gt;6</title>
<path fill="none" stroke="grey" stroke-width="2" d="M105.52,-431.7C115.63,-422.97 128.04,-412.24 139.02,-402.75"/>
<polygon fill="grey" stroke="grey" stroke-width="2" points="141.43,-405.29 146.71,-396.1 136.85,-399.99 141.43,-405.29"/>
</g>
<!-- 8 -->
<g id="node9" class="node">
<title>8</title>
<path fill="none" stroke="#d88d56" stroke-width="2" d="M139,-540C139,-540 12,-540 12,-540 6,-540 0,-534 0,-528 0,-528 0,-516 0,-516 0,-510 6,-504 12,-504 12,-504 139,-504 139,-504 145,-504 151,-510 151,-516 151,-516 151,-528 151,-528 151,-534 145,-540 139,-540"/>
<text text-anchor="middle" x="75.5" y="-525" font-family="sans" font-size="10.00">telechargement_sequences</text>
<text text-anchor="middle" x="75.5" y="-514" font-family="sans" font-size="10.00">sracode: SRR10379721</text>
</g>
<!-- 8&#45;&gt;7 -->
<g id="edge13" class="edge">
<title>8&#45;&gt;7</title>
<path fill="none" stroke="grey" stroke-width="2" d="M77.97,-503.7C79.07,-495.98 80.4,-486.71 81.63,-478.11"/>
<polygon fill="grey" stroke="grey" stroke-width="2" points="85.11,-478.5 83.06,-468.1 78.18,-477.51 85.11,-478.5"/>
</g>
<!-- 9&#45;&gt;1 -->
<g id="edge3" class="edge">
<title>9&#45;&gt;1</title>
<path fill="none" stroke="grey" stroke-width="2" d="M408.63,-143.88C423.67,-134.72 442.37,-123.34 458.56,-113.48"/>
<polygon fill="grey" stroke="grey" stroke-width="2" points="460.54,-116.38 467.26,-108.19 456.9,-110.4 460.54,-116.38"/>
</g>
<!-- 10 -->
<g id="node11" class="node">
<title>10</title>
<path fill="none" stroke="#d85656" stroke-width="2" d="M330.5,-252C330.5,-252 284.5,-252 284.5,-252 278.5,-252 272.5,-246 272.5,-240 272.5,-240 272.5,-228 272.5,-228 272.5,-222 278.5,-216 284.5,-216 284.5,-216 330.5,-216 330.5,-216 336.5,-216 342.5,-222 342.5,-228 342.5,-228 342.5,-240 342.5,-240 342.5,-246 336.5,-252 330.5,-252"/>
<text text-anchor="middle" x="307.5" y="-231.5" font-family="sans" font-size="10.00">samTobam</text>
</g>
<!-- 10&#45;&gt;9 -->
<g id="edge15" class="edge">
<title>10&#45;&gt;9</title>
<path fill="none" stroke="grey" stroke-width="2" d="M325.54,-215.7C334.56,-207.05 345.62,-196.45 355.44,-187.03"/>
<polygon fill="grey" stroke="grey" stroke-width="2" points="357.87,-189.55 362.66,-180.1 353.02,-184.5 357.87,-189.55"/>
</g>
<!-- 11 -->
<g id="node12" class="node">
<title>11</title>
<path fill="none" stroke="#d8bc56" stroke-width="2" d="M310,-324C310,-324 275,-324 275,-324 269,-324 263,-318 263,-312 263,-312 263,-300 263,-300 263,-294 269,-288 275,-288 275,-288 310,-288 310,-288 316,-288 322,-294 322,-300 322,-300 322,-312 322,-312 322,-318 316,-324 310,-324"/>
<text text-anchor="middle" x="292.5" y="-303.5" font-family="sans" font-size="10.00">mapping</text>
</g>
<!-- 11&#45;&gt;10 -->
<g id="edge16" class="edge">
<title>11&#45;&gt;10</title>
<path fill="none" stroke="grey" stroke-width="2" d="M296.21,-287.7C297.86,-279.98 299.85,-270.71 301.69,-262.11"/>
<polygon fill="grey" stroke="grey" stroke-width="2" points="305.16,-262.62 303.83,-252.1 298.32,-261.15 305.16,-262.62"/>
</g>
<!-- 12 -->
<g id="node13" class="node">
<title>12</title>
<path fill="none" stroke="#56c1d8" stroke-width="2" d="M281.5,-396C281.5,-396 243.5,-396 243.5,-396 237.5,-396 231.5,-390 231.5,-384 231.5,-384 231.5,-372 231.5,-372 231.5,-366 237.5,-360 243.5,-360 243.5,-360 281.5,-360 281.5,-360 287.5,-360 293.5,-366 293.5,-372 293.5,-372 293.5,-384 293.5,-384 293.5,-390 287.5,-396 281.5,-396"/>
<text text-anchor="middle" x="262.5" y="-375.5" font-family="sans" font-size="10.00">trimming</text>
</g>
<!-- 12&#45;&gt;11 -->
<g id="edge17" class="edge">
<title>12&#45;&gt;11</title>
<path fill="none" stroke="grey" stroke-width="2" d="M269.92,-359.7C273.29,-351.81 277.37,-342.3 281.12,-333.55"/>
<polygon fill="grey" stroke="grey" stroke-width="2" points="284.45,-334.67 285.17,-324.1 278.01,-331.92 284.45,-334.67"/>
</g>
<!-- 13 -->
<g id="node14" class="node">
<title>13</title>
<path fill="none" stroke="#56d8c1" stroke-width="2" d="M308,-468C308,-468 201,-468 201,-468 195,-468 189,-462 189,-456 189,-456 189,-444 189,-444 189,-438 195,-432 201,-432 201,-432 308,-432 308,-432 314,-432 320,-438 320,-444 320,-444 320,-456 320,-456 320,-462 314,-468 308,-468"/>
<text text-anchor="middle" x="254.5" y="-447.5" font-family="sans" font-size="10.00">compresion_sequences</text>
</g>
<!-- 13&#45;&gt;12 -->
<g id="edge18" class="edge">
<title>13&#45;&gt;12</title>
<path fill="none" stroke="grey" stroke-width="2" d="M256.48,-431.7C257.36,-423.98 258.42,-414.71 259.4,-406.11"/>
<polygon fill="grey" stroke="grey" stroke-width="2" points="262.89,-406.44 260.55,-396.1 255.93,-405.64 262.89,-406.44"/>
</g>
<!-- 14 -->
<g id="node15" class="node">
<title>14</title>
<path fill="none" stroke="#d88d56" stroke-width="2" d="M308,-540C308,-540 181,-540 181,-540 175,-540 169,-534 169,-528 169,-528 169,-516 169,-516 169,-510 175,-504 181,-504 181,-504 308,-504 308,-504 314,-504 320,-510 320,-516 320,-516 320,-528 320,-528 320,-534 314,-540 308,-540"/>
<text text-anchor="middle" x="244.5" y="-525" font-family="sans" font-size="10.00">telechargement_sequences</text>
<text text-anchor="middle" x="244.5" y="-514" font-family="sans" font-size="10.00">sracode: SRR10379722</text>
</g>
<!-- 14&#45;&gt;13 -->
<g id="edge19" class="edge">
<title>14&#45;&gt;13</title>
<path fill="none" stroke="grey" stroke-width="2" d="M246.97,-503.7C248.07,-495.98 249.4,-486.71 250.63,-478.11"/>
<polygon fill="grey" stroke="grey" stroke-width="2" points="254.11,-478.5 252.06,-468.1 247.18,-477.51 254.11,-478.5"/>
</g>
<!-- 15&#45;&gt;1 -->
<g id="edge4" class="edge">
<title>15&#45;&gt;1</title>
<path fill="none" stroke="grey" stroke-width="2" d="M466.89,-143.7C471.26,-135.64 476.56,-125.89 481.4,-116.98"/>
<polygon fill="grey" stroke="grey" stroke-width="2" points="484.52,-118.56 486.21,-108.1 478.37,-115.22 484.52,-118.56"/>
</g>
<!-- 16 -->
<g id="node17" class="node">
<title>16</title>
<path fill="none" stroke="#d85656" stroke-width="2" d="M437.5,-252C437.5,-252 391.5,-252 391.5,-252 385.5,-252 379.5,-246 379.5,-240 379.5,-240 379.5,-228 379.5,-228 379.5,-222 385.5,-216 391.5,-216 391.5,-216 437.5,-216 437.5,-216 443.5,-216 449.5,-222 449.5,-228 449.5,-228 449.5,-240 449.5,-240 449.5,-246 443.5,-252 437.5,-252"/>
<text text-anchor="middle" x="414.5" y="-231.5" font-family="sans" font-size="10.00">samTobam</text>
</g>
<!-- 16&#45;&gt;15 -->
<g id="edge21" class="edge">
<title>16&#45;&gt;15</title>
<path fill="none" stroke="grey" stroke-width="2" d="M425.13,-215.7C430.13,-207.56 436.19,-197.69 441.71,-188.7"/>
<polygon fill="grey" stroke="grey" stroke-width="2" points="444.74,-190.46 446.99,-180.1 438.78,-186.79 444.74,-190.46"/>
</g>
<!-- 17 -->
<g id="node18" class="node">
<title>17</title>
<path fill="none" stroke="#d8bc56" stroke-width="2" d="M431,-324C431,-324 396,-324 396,-324 390,-324 384,-318 384,-312 384,-312 384,-300 384,-300 384,-294 390,-288 396,-288 396,-288 431,-288 431,-288 437,-288 443,-294 443,-300 443,-300 443,-312 443,-312 443,-318 437,-324 431,-324"/>
<text text-anchor="middle" x="413.5" y="-303.5" font-family="sans" font-size="10.00">mapping</text>
</g>
<!-- 17&#45;&gt;16 -->
<g id="edge22" class="edge">
<title>17&#45;&gt;16</title>
<path fill="none" stroke="grey" stroke-width="2" d="M413.75,-287.7C413.86,-279.98 413.99,-270.71 414.11,-262.11"/>
<polygon fill="grey" stroke="grey" stroke-width="2" points="417.61,-262.15 414.26,-252.1 410.61,-262.05 417.61,-262.15"/>
</g>
<!-- 18 -->
<g id="node19" class="node">
<title>18</title>
<path fill="none" stroke="#56c1d8" stroke-width="2" d="M432.5,-396C432.5,-396 394.5,-396 394.5,-396 388.5,-396 382.5,-390 382.5,-384 382.5,-384 382.5,-372 382.5,-372 382.5,-366 388.5,-360 394.5,-360 394.5,-360 432.5,-360 432.5,-360 438.5,-360 444.5,-366 444.5,-372 444.5,-372 444.5,-384 444.5,-384 444.5,-390 438.5,-396 432.5,-396"/>
<text text-anchor="middle" x="413.5" y="-375.5" font-family="sans" font-size="10.00">trimming</text>
</g>
<!-- 18&#45;&gt;17 -->
<g id="edge23" class="edge">
<title>18&#45;&gt;17</title>
<path fill="none" stroke="grey" stroke-width="2" d="M413.5,-359.7C413.5,-351.98 413.5,-342.71 413.5,-334.11"/>
<polygon fill="grey" stroke="grey" stroke-width="2" points="417,-334.1 413.5,-324.1 410,-334.1 417,-334.1"/>
</g>
<!-- 19 -->
<g id="node20" class="node">
<title>19</title>
<path fill="none" stroke="#56d8c1" stroke-width="2" d="M467,-468C467,-468 360,-468 360,-468 354,-468 348,-462 348,-456 348,-456 348,-444 348,-444 348,-438 354,-432 360,-432 360,-432 467,-432 467,-432 473,-432 479,-438 479,-444 479,-444 479,-456 479,-456 479,-462 473,-468 467,-468"/>
<text text-anchor="middle" x="413.5" y="-447.5" font-family="sans" font-size="10.00">compresion_sequences</text>
</g>
<!-- 19&#45;&gt;18 -->
<g id="edge24" class="edge">
<title>19&#45;&gt;18</title>
<path fill="none" stroke="grey" stroke-width="2" d="M413.5,-431.7C413.5,-423.98 413.5,-414.71 413.5,-406.11"/>
<polygon fill="grey" stroke="grey" stroke-width="2" points="417,-406.1 413.5,-396.1 410,-406.1 417,-406.1"/>
</g>
<!-- 20 -->
<g id="node21" class="node">
<title>20</title>
<path fill="none" stroke="#d88d56" stroke-width="2" d="M477,-540C477,-540 350,-540 350,-540 344,-540 338,-534 338,-528 338,-528 338,-516 338,-516 338,-510 344,-504 350,-504 350,-504 477,-504 477,-504 483,-504 489,-510 489,-516 489,-516 489,-528 489,-528 489,-534 483,-540 477,-540"/>
<text text-anchor="middle" x="413.5" y="-525" font-family="sans" font-size="10.00">telechargement_sequences</text>
<text text-anchor="middle" x="413.5" y="-514" font-family="sans" font-size="10.00">sracode: SRR10379723</text>
</g>
<!-- 20&#45;&gt;19 -->
<g id="edge25" class="edge">
<title>20&#45;&gt;19</title>
<path fill="none" stroke="grey" stroke-width="2" d="M413.5,-503.7C413.5,-495.98 413.5,-486.71 413.5,-478.11"/>
<polygon fill="grey" stroke="grey" stroke-width="2" points="417,-478.1 413.5,-468.1 410,-478.1 417,-478.1"/>
</g>
<!-- 21&#45;&gt;1 -->
<g id="edge5" class="edge">
<title>21&#45;&gt;1</title>
<path fill="none" stroke="grey" stroke-width="2" d="M524.86,-143.7C520.37,-135.64 514.94,-125.89 509.98,-116.98"/>
<polygon fill="grey" stroke="grey" stroke-width="2" points="512.95,-115.14 505.03,-108.1 506.84,-118.54 512.95,-115.14"/>
</g>
<!-- 22 -->
<g id="node23" class="node">
<title>22</title>
<path fill="none" stroke="#d85656" stroke-width="2" d="M600.5,-252C600.5,-252 554.5,-252 554.5,-252 548.5,-252 542.5,-246 542.5,-240 542.5,-240 542.5,-228 542.5,-228 542.5,-222 548.5,-216 554.5,-216 554.5,-216 600.5,-216 600.5,-216 606.5,-216 612.5,-222 612.5,-228 612.5,-228 612.5,-240 612.5,-240 612.5,-246 606.5,-252 600.5,-252"/>
<text text-anchor="middle" x="577.5" y="-231.5" font-family="sans" font-size="10.00">samTobam</text>
</g>
<!-- 22&#45;&gt;21 -->
<g id="edge27" class="edge">
<title>22&#45;&gt;21</title>
<path fill="none" stroke="grey" stroke-width="2" d="M566.87,-215.7C561.87,-207.56 555.81,-197.69 550.29,-188.7"/>
<polygon fill="grey" stroke="grey" stroke-width="2" points="553.22,-186.79 545.01,-180.1 547.26,-190.46 553.22,-186.79"/>
</g>
<!-- 23 -->
<g id="node24" class="node">
<title>23</title>
<path fill="none" stroke="#d8bc56" stroke-width="2" d="M595,-324C595,-324 560,-324 560,-324 554,-324 548,-318 548,-312 548,-312 548,-300 548,-300 548,-294 554,-288 560,-288 560,-288 595,-288 595,-288 601,-288 607,-294 607,-300 607,-300 607,-312 607,-312 607,-318 601,-324 595,-324"/>
<text text-anchor="middle" x="577.5" y="-303.5" font-family="sans" font-size="10.00">mapping</text>
</g>
<!-- 23&#45;&gt;22 -->
<g id="edge28" class="edge">
<title>23&#45;&gt;22</title>
<path fill="none" stroke="grey" stroke-width="2" d="M577.5,-287.7C577.5,-279.98 577.5,-270.71 577.5,-262.11"/>
<polygon fill="grey" stroke="grey" stroke-width="2" points="581,-262.1 577.5,-252.1 574,-262.1 581,-262.1"/>
</g>
<!-- 24 -->
<g id="node25" class="node">
<title>24</title>
<path fill="none" stroke="#56c1d8" stroke-width="2" d="M596.5,-396C596.5,-396 558.5,-396 558.5,-396 552.5,-396 546.5,-390 546.5,-384 546.5,-384 546.5,-372 546.5,-372 546.5,-366 552.5,-360 558.5,-360 558.5,-360 596.5,-360 596.5,-360 602.5,-360 608.5,-366 608.5,-372 608.5,-372 608.5,-384 608.5,-384 608.5,-390 602.5,-396 596.5,-396"/>
<text text-anchor="middle" x="577.5" y="-375.5" font-family="sans" font-size="10.00">trimming</text>
</g>
<!-- 24&#45;&gt;23 -->
<g id="edge29" class="edge">
<title>24&#45;&gt;23</title>
<path fill="none" stroke="grey" stroke-width="2" d="M577.5,-359.7C577.5,-351.98 577.5,-342.71 577.5,-334.11"/>
<polygon fill="grey" stroke="grey" stroke-width="2" points="581,-334.1 577.5,-324.1 574,-334.1 581,-334.1"/>
</g>
<!-- 25 -->
<g id="node26" class="node">
<title>25</title>
<path fill="none" stroke="#56d8c1" stroke-width="2" d="M635,-468C635,-468 528,-468 528,-468 522,-468 516,-462 516,-456 516,-456 516,-444 516,-444 516,-438 522,-432 528,-432 528,-432 635,-432 635,-432 641,-432 647,-438 647,-444 647,-444 647,-456 647,-456 647,-462 641,-468 635,-468"/>
<text text-anchor="middle" x="581.5" y="-447.5" font-family="sans" font-size="10.00">compresion_sequences</text>
</g>
<!-- 25&#45;&gt;24 -->
<g id="edge30" class="edge">
<title>25&#45;&gt;24</title>
<path fill="none" stroke="grey" stroke-width="2" d="M580.51,-431.7C580.07,-423.98 579.54,-414.71 579.05,-406.11"/>
<polygon fill="grey" stroke="grey" stroke-width="2" points="582.54,-405.89 578.48,-396.1 575.55,-406.29 582.54,-405.89"/>
</g>
<!-- 26 -->
<g id="node27" class="node">
<title>26</title>
<path fill="none" stroke="#d88d56" stroke-width="2" d="M646,-540C646,-540 519,-540 519,-540 513,-540 507,-534 507,-528 507,-528 507,-516 507,-516 507,-510 513,-504 519,-504 519,-504 646,-504 646,-504 652,-504 658,-510 658,-516 658,-516 658,-528 658,-528 658,-534 652,-540 646,-540"/>
<text text-anchor="middle" x="582.5" y="-525" font-family="sans" font-size="10.00">telechargement_sequences</text>
<text text-anchor="middle" x="582.5" y="-514" font-family="sans" font-size="10.00">sracode: SRR10379724</text>
</g>
<!-- 26&#45;&gt;25 -->
<g id="edge31" class="edge">
<title>26&#45;&gt;25</title>
<path fill="none" stroke="grey" stroke-width="2" d="M582.25,-503.7C582.14,-495.98 582.01,-486.71 581.89,-478.11"/>
<polygon fill="grey" stroke="grey" stroke-width="2" points="585.39,-478.05 581.74,-468.1 578.39,-478.15 585.39,-478.05"/>
</g>
<!-- 27&#45;&gt;1 -->
<g id="edge6" class="edge">
<title>27&#45;&gt;1</title>
<path fill="none" stroke="grey" stroke-width="2" d="M583.12,-143.88C567.96,-134.72 549.09,-123.34 532.76,-113.48"/>
<polygon fill="grey" stroke="grey" stroke-width="2" points="534.36,-110.36 523.99,-108.19 530.74,-116.35 534.36,-110.36"/>
</g>
<!-- 28 -->
<g id="node29" class="node">
<title>28</title>
<path fill="none" stroke="#d85656" stroke-width="2" d="M716.5,-252C716.5,-252 670.5,-252 670.5,-252 664.5,-252 658.5,-246 658.5,-240 658.5,-240 658.5,-228 658.5,-228 658.5,-222 664.5,-216 670.5,-216 670.5,-216 716.5,-216 716.5,-216 722.5,-216 728.5,-222 728.5,-228 728.5,-228 728.5,-240 728.5,-240 728.5,-246 722.5,-252 716.5,-252"/>
<text text-anchor="middle" x="693.5" y="-231.5" font-family="sans" font-size="10.00">samTobam</text>
</g>
<!-- 28&#45;&gt;27 -->
<g id="edge33" class="edge">
<title>28&#45;&gt;27</title>
<path fill="none" stroke="grey" stroke-width="2" d="M673.23,-215.7C663,-206.97 650.44,-196.24 639.32,-186.75"/>
<polygon fill="grey" stroke="grey" stroke-width="2" points="641.41,-183.94 631.54,-180.1 636.87,-189.26 641.41,-183.94"/>
</g>
<!-- 29 -->
<g id="node30" class="node">
<title>29</title>
<path fill="none" stroke="#d8bc56" stroke-width="2" d="M722,-324C722,-324 687,-324 687,-324 681,-324 675,-318 675,-312 675,-312 675,-300 675,-300 675,-294 681,-288 687,-288 687,-288 722,-288 722,-288 728,-288 734,-294 734,-300 734,-300 734,-312 734,-312 734,-318 728,-324 722,-324"/>
<text text-anchor="middle" x="704.5" y="-303.5" font-family="sans" font-size="10.00">mapping</text>
</g>
<!-- 29&#45;&gt;28 -->
<g id="edge34" class="edge">
<title>29&#45;&gt;28</title>
<path fill="none" stroke="grey" stroke-width="2" d="M701.78,-287.7C700.57,-279.98 699.11,-270.71 697.76,-262.11"/>
<polygon fill="grey" stroke="grey" stroke-width="2" points="701.2,-261.44 696.19,-252.1 694.28,-262.53 701.2,-261.44"/>
</g>
<!-- 30 -->
<g id="node31" class="node">
<title>30</title>
<path fill="none" stroke="#56c1d8" stroke-width="2" d="M734.5,-396C734.5,-396 696.5,-396 696.5,-396 690.5,-396 684.5,-390 684.5,-384 684.5,-384 684.5,-372 684.5,-372 684.5,-366 690.5,-360 696.5,-360 696.5,-360 734.5,-360 734.5,-360 740.5,-360 746.5,-366 746.5,-372 746.5,-372 746.5,-384 746.5,-384 746.5,-390 740.5,-396 734.5,-396"/>
<text text-anchor="middle" x="715.5" y="-375.5" font-family="sans" font-size="10.00">trimming</text>
</g>
<!-- 30&#45;&gt;29 -->
<g id="edge35" class="edge">
<title>30&#45;&gt;29</title>
<path fill="none" stroke="grey" stroke-width="2" d="M712.78,-359.7C711.57,-351.98 710.11,-342.71 708.76,-334.11"/>
<polygon fill="grey" stroke="grey" stroke-width="2" points="712.2,-333.44 707.19,-324.1 705.28,-334.53 712.2,-333.44"/>
</g>
<!-- 31 -->
<g id="node32" class="node">
<title>31</title>
<path fill="none" stroke="#56d8c1" stroke-width="2" d="M794,-468C794,-468 687,-468 687,-468 681,-468 675,-462 675,-456 675,-456 675,-444 675,-444 675,-438 681,-432 687,-432 687,-432 794,-432 794,-432 800,-432 806,-438 806,-444 806,-444 806,-456 806,-456 806,-462 800,-468 794,-468"/>
<text text-anchor="middle" x="740.5" y="-447.5" font-family="sans" font-size="10.00">compresion_sequences</text>
</g>
<!-- 31&#45;&gt;30 -->
<g id="edge36" class="edge">
<title>31&#45;&gt;30</title>
<path fill="none" stroke="grey" stroke-width="2" d="M734.32,-431.7C731.5,-423.81 728.11,-414.3 724.98,-405.55"/>
<polygon fill="grey" stroke="grey" stroke-width="2" points="728.27,-404.34 721.61,-396.1 721.68,-406.7 728.27,-404.34"/>
</g>
<!-- 32 -->
<g id="node33" class="node">
<title>32</title>
<path fill="none" stroke="#d88d56" stroke-width="2" d="M815,-540C815,-540 688,-540 688,-540 682,-540 676,-534 676,-528 676,-528 676,-516 676,-516 676,-510 682,-504 688,-504 688,-504 815,-504 815,-504 821,-504 827,-510 827,-516 827,-516 827,-528 827,-528 827,-534 821,-540 815,-540"/>
<text text-anchor="middle" x="751.5" y="-525" font-family="sans" font-size="10.00">telechargement_sequences</text>
<text text-anchor="middle" x="751.5" y="-514" font-family="sans" font-size="10.00">sracode: SRR10379725</text>
</g>
<!-- 32&#45;&gt;31 -->
<g id="edge37" class="edge">
<title>32&#45;&gt;31</title>
<path fill="none" stroke="grey" stroke-width="2" d="M748.78,-503.7C747.57,-495.98 746.11,-486.71 744.76,-478.11"/>
<polygon fill="grey" stroke="grey" stroke-width="2" points="748.2,-477.44 743.19,-468.1 741.28,-478.53 748.2,-477.44"/>
</g>
<!-- 33&#45;&gt;1 -->
<g id="edge7" class="edge">
<title>33&#45;&gt;1</title>
<path fill="none" stroke="grey" stroke-width="2" d="M658.74,-147.38C655.97,-146.2 653.19,-145.06 650.5,-144 615.52,-130.23 575.33,-116.55 544.65,-106.53"/>
<polygon fill="grey" stroke="grey" stroke-width="2" points="545.63,-103.17 535.04,-103.42 543.47,-109.83 545.63,-103.17"/>
</g>
<!-- 34 -->
<g id="node35" class="node">
<title>34</title>
<path fill="none" stroke="#d85656" stroke-width="2" d="M818.5,-252C818.5,-252 772.5,-252 772.5,-252 766.5,-252 760.5,-246 760.5,-240 760.5,-240 760.5,-228 760.5,-228 760.5,-222 766.5,-216 772.5,-216 772.5,-216 818.5,-216 818.5,-216 824.5,-216 830.5,-222 830.5,-228 830.5,-228 830.5,-240 830.5,-240 830.5,-246 824.5,-252 818.5,-252"/>
<text text-anchor="middle" x="795.5" y="-231.5" font-family="sans" font-size="10.00">samTobam</text>
</g>
<!-- 34&#45;&gt;33 -->
<g id="edge39" class="edge">
<title>34&#45;&gt;33</title>
<path fill="none" stroke="grey" stroke-width="2" d="M769.32,-215.88C755.46,-206.81 738.26,-195.55 723.29,-185.76"/>
<polygon fill="grey" stroke="grey" stroke-width="2" points="725.06,-182.74 714.78,-180.19 721.23,-188.59 725.06,-182.74"/>
</g>
<!-- 35 -->
<g id="node36" class="node">
<title>35</title>
<path fill="none" stroke="#d8bc56" stroke-width="2" d="M817,-324C817,-324 782,-324 782,-324 776,-324 770,-318 770,-312 770,-312 770,-300 770,-300 770,-294 776,-288 782,-288 782,-288 817,-288 817,-288 823,-288 829,-294 829,-300 829,-300 829,-312 829,-312 829,-318 823,-324 817,-324"/>
<text text-anchor="middle" x="799.5" y="-303.5" font-family="sans" font-size="10.00">mapping</text>
</g>
<!-- 35&#45;&gt;34 -->
<g id="edge40" class="edge">
<title>35&#45;&gt;34</title>
<path fill="none" stroke="grey" stroke-width="2" d="M798.51,-287.7C798.07,-279.98 797.54,-270.71 797.05,-262.11"/>
<polygon fill="grey" stroke="grey" stroke-width="2" points="800.54,-261.89 796.48,-252.1 793.55,-262.29 800.54,-261.89"/>
</g>
<!-- 36 -->
<g id="node37" class="node">
<title>36</title>
<path fill="none" stroke="#56c1d8" stroke-width="2" d="M825.5,-396C825.5,-396 787.5,-396 787.5,-396 781.5,-396 775.5,-390 775.5,-384 775.5,-384 775.5,-372 775.5,-372 775.5,-366 781.5,-360 787.5,-360 787.5,-360 825.5,-360 825.5,-360 831.5,-360 837.5,-366 837.5,-372 837.5,-372 837.5,-384 837.5,-384 837.5,-390 831.5,-396 825.5,-396"/>
<text text-anchor="middle" x="806.5" y="-375.5" font-family="sans" font-size="10.00">trimming</text>
</g>
<!-- 36&#45;&gt;35 -->
<g id="edge41" class="edge">
<title>36&#45;&gt;35</title>
<path fill="none" stroke="grey" stroke-width="2" d="M804.77,-359.7C804,-351.98 803.07,-342.71 802.21,-334.11"/>
<polygon fill="grey" stroke="grey" stroke-width="2" points="805.69,-333.71 801.21,-324.1 798.72,-334.4 805.69,-333.71"/>
</g>
<!-- 37 -->
<g id="node38" class="node">
<title>37</title>
<path fill="none" stroke="#56d8c1" stroke-width="2" d="M958,-468C958,-468 851,-468 851,-468 845,-468 839,-462 839,-456 839,-456 839,-444 839,-444 839,-438 845,-432 851,-432 851,-432 958,-432 958,-432 964,-432 970,-438 970,-444 970,-444 970,-456 970,-456 970,-462 964,-468 958,-468"/>
<text text-anchor="middle" x="904.5" y="-447.5" font-family="sans" font-size="10.00">compresion_sequences</text>
</g>
<!-- 37&#45;&gt;36 -->
<g id="edge42" class="edge">
<title>37&#45;&gt;36</title>
<path fill="none" stroke="grey" stroke-width="2" d="M880.53,-431.88C867.95,-422.89 852.37,-411.76 838.75,-402.03"/>
<polygon fill="grey" stroke="grey" stroke-width="2" points="840.74,-399.15 830.57,-396.19 836.67,-404.85 840.74,-399.15"/>
</g>
<!-- 38 -->
<g id="node39" class="node">
<title>38</title>
<path fill="none" stroke="#d88d56" stroke-width="2" d="M984,-540C984,-540 857,-540 857,-540 851,-540 845,-534 845,-528 845,-528 845,-516 845,-516 845,-510 851,-504 857,-504 857,-504 984,-504 984,-504 990,-504 996,-510 996,-516 996,-516 996,-528 996,-528 996,-534 990,-540 984,-540"/>
<text text-anchor="middle" x="920.5" y="-525" font-family="sans" font-size="10.00">telechargement_sequences</text>
<text text-anchor="middle" x="920.5" y="-514" font-family="sans" font-size="10.00">sracode: SRR10379726</text>
</g>
<!-- 38&#45;&gt;37 -->
<g id="edge43" class="edge">
<title>38&#45;&gt;37</title>
<path fill="none" stroke="grey" stroke-width="2" d="M916.54,-503.7C914.78,-495.98 912.66,-486.71 910.7,-478.11"/>
<polygon fill="grey" stroke="grey" stroke-width="2" points="914.05,-477.07 908.41,-468.1 907.23,-478.63 914.05,-477.07"/>
</g>
</g>
</svg>
