<?xml version="1.0" encoding="UTF-8" standalone="no"?>
<!DOCTYPE svg PUBLIC "-//W3C//DTD SVG 1.1//EN"
 "http://www.w3.org/Graphics/SVG/1.1/DTD/svg11.dtd">
<!-- Generated by graphviz version 2.50.0 (0)
 -->
<!-- Title: snakemake_dag Pages: 1 -->
<svg width="1260pt" height="548pt"
 viewBox="0.00 0.00 1259.50 548.00" xmlns="http://www.w3.org/2000/svg" xmlns:xlink="http://www.w3.org/1999/xlink">
<g id="graph0" class="graph" transform="scale(1 1) rotate(0) translate(4 544)">
<title>snakemake_dag</title>
<polygon fill="white" stroke="transparent" points="-4,4 -4,-544 1255.5,-544 1255.5,4 -4,4"/>
<!-- 0 -->
<g id="node1" class="node">
<title>0</title>
<path fill="none" stroke="#d85656" stroke-width="2" d="M625,-36C625,-36 595,-36 595,-36 589,-36 583,-30 583,-24 583,-24 583,-12 583,-12 583,-6 589,0 595,0 595,0 625,0 625,0 631,0 637,-6 637,-12 637,-12 637,-24 637,-24 637,-30 631,-36 625,-36"/>
<text text-anchor="middle" x="610" y="-15.5" font-family="sans" font-size="10.00">all</text>
</g>
<!-- 1 -->
<g id="node2" class="node">
<title>1</title>
<path fill="none" stroke="#56d8a9" stroke-width="2" d="M70,-108C70,-108 12,-108 12,-108 6,-108 0,-102 0,-96 0,-96 0,-84 0,-84 0,-78 6,-72 12,-72 12,-72 70,-72 70,-72 76,-72 82,-78 82,-84 82,-84 82,-96 82,-96 82,-102 76,-108 70,-108"/>
<text text-anchor="middle" x="41" y="-93" font-family="sans" font-size="10.00">bowtie_index</text>
<text text-anchor="middle" x="41" y="-82" font-family="sans" font-size="10.00">suffix: 1</text>
</g>
<!-- 1&#45;&gt;0 -->
<g id="edge1" class="edge">
<title>1&#45;&gt;0</title>
<path fill="none" stroke="grey" stroke-width="2" d="M82.27,-74.17C85.2,-73.36 88.13,-72.63 91,-72 268.76,-33.23 487.1,-22.67 572.89,-19.92"/>
<polygon fill="grey" stroke="grey" stroke-width="2" points="573.03,-23.42 582.92,-19.62 572.82,-16.42 573.03,-23.42"/>
</g>
<!-- 2 -->
<g id="node3" class="node">
<title>2</title>
<path fill="none" stroke="#56d8a9" stroke-width="2" d="M170,-108C170,-108 112,-108 112,-108 106,-108 100,-102 100,-96 100,-96 100,-84 100,-84 100,-78 106,-72 112,-72 112,-72 170,-72 170,-72 176,-72 182,-78 182,-84 182,-84 182,-96 182,-96 182,-102 176,-108 170,-108"/>
<text text-anchor="middle" x="141" y="-93" font-family="sans" font-size="10.00">bowtie_index</text>
<text text-anchor="middle" x="141" y="-82" font-family="sans" font-size="10.00">suffix: 2</text>
</g>
<!-- 2&#45;&gt;0 -->
<g id="edge2" class="edge">
<title>2&#45;&gt;0</title>
<path fill="none" stroke="grey" stroke-width="2" d="M182.01,-74.32C185.03,-73.47 188.05,-72.68 191,-72 329.58,-40.02 498.69,-26.08 572.52,-21.2"/>
<polygon fill="grey" stroke="grey" stroke-width="2" points="572.95,-24.67 582.71,-20.54 572.5,-17.69 572.95,-24.67"/>
</g>
<!-- 3 -->
<g id="node4" class="node">
<title>3</title>
<path fill="none" stroke="#56d8a9" stroke-width="2" d="M270,-108C270,-108 212,-108 212,-108 206,-108 200,-102 200,-96 200,-96 200,-84 200,-84 200,-78 206,-72 212,-72 212,-72 270,-72 270,-72 276,-72 282,-78 282,-84 282,-84 282,-96 282,-96 282,-102 276,-108 270,-108"/>
<text text-anchor="middle" x="241" y="-93" font-family="sans" font-size="10.00">bowtie_index</text>
<text text-anchor="middle" x="241" y="-82" font-family="sans" font-size="10.00">suffix: 3</text>
</g>
<!-- 3&#45;&gt;0 -->
<g id="edge3" class="edge">
<title>3&#45;&gt;0</title>
<path fill="none" stroke="grey" stroke-width="2" d="M282.04,-74.45C285.06,-73.57 288.07,-72.74 291,-72 391.42,-46.77 512.71,-30.38 572.69,-23.19"/>
<polygon fill="grey" stroke="grey" stroke-width="2" points="573.29,-26.65 582.81,-22 572.47,-19.7 573.29,-26.65"/>
</g>
<!-- 4 -->
<g id="node5" class="node">
<title>4</title>
<path fill="none" stroke="#56d8a9" stroke-width="2" d="M370,-108C370,-108 312,-108 312,-108 306,-108 300,-102 300,-96 300,-96 300,-84 300,-84 300,-78 306,-72 312,-72 312,-72 370,-72 370,-72 376,-72 382,-78 382,-84 382,-84 382,-96 382,-96 382,-102 376,-108 370,-108"/>
<text text-anchor="middle" x="341" y="-93" font-family="sans" font-size="10.00">bowtie_index</text>
<text text-anchor="middle" x="341" y="-82" font-family="sans" font-size="10.00">suffix: 4</text>
</g>
<!-- 4&#45;&gt;0 -->
<g id="edge4" class="edge">
<title>4&#45;&gt;0</title>
<path fill="none" stroke="grey" stroke-width="2" d="M382.11,-74.7C385.11,-73.75 388.09,-72.84 391,-72 454.3,-53.62 529.14,-36.48 572.91,-26.9"/>
<polygon fill="grey" stroke="grey" stroke-width="2" points="573.79,-30.29 582.82,-24.75 572.31,-23.45 573.79,-30.29"/>
</g>
<!-- 5 -->
<g id="node6" class="node">
<title>5</title>
<path fill="none" stroke="#56d8a9" stroke-width="2" d="M470,-108C470,-108 412,-108 412,-108 406,-108 400,-102 400,-96 400,-96 400,-84 400,-84 400,-78 406,-72 412,-72 412,-72 470,-72 470,-72 476,-72 482,-78 482,-84 482,-84 482,-96 482,-96 482,-102 476,-108 470,-108"/>
<text text-anchor="middle" x="441" y="-93" font-family="sans" font-size="10.00">bowtie_index</text>
<text text-anchor="middle" x="441" y="-82" font-family="sans" font-size="10.00">suffix: rev.1</text>
</g>
<!-- 5&#45;&gt;0 -->
<g id="edge5" class="edge">
<title>5&#45;&gt;0</title>
<path fill="none" stroke="grey" stroke-width="2" d="M482.34,-71.88C510.19,-60.34 546.59,-45.26 573.39,-34.16"/>
<polygon fill="grey" stroke="grey" stroke-width="2" points="574.9,-37.33 582.8,-30.27 572.22,-30.86 574.9,-37.33"/>
</g>
<!-- 6 -->
<g id="node7" class="node">
<title>6</title>
<path fill="none" stroke="#56d8a9" stroke-width="2" d="M570,-108C570,-108 512,-108 512,-108 506,-108 500,-102 500,-96 500,-96 500,-84 500,-84 500,-78 506,-72 512,-72 512,-72 570,-72 570,-72 576,-72 582,-78 582,-84 582,-84 582,-96 582,-96 582,-102 576,-108 570,-108"/>
<text text-anchor="middle" x="541" y="-93" font-family="sans" font-size="10.00">bowtie_index</text>
<text text-anchor="middle" x="541" y="-82" font-family="sans" font-size="10.00">suffix: rev.2</text>
</g>
<!-- 6&#45;&gt;0 -->
<g id="edge6" class="edge">
<title>6&#45;&gt;0</title>
<path fill="none" stroke="grey" stroke-width="2" d="M558.06,-71.7C566.5,-63.14 576.82,-52.66 586.04,-43.3"/>
<polygon fill="grey" stroke="grey" stroke-width="2" points="588.61,-45.68 593.14,-36.1 583.63,-40.77 588.61,-45.68"/>
</g>
<!-- 7 -->
<g id="node8" class="node">
<title>7</title>
<path fill="none" stroke="#5692d8" stroke-width="2" d="M583.5,-180C583.5,-180 548.5,-180 548.5,-180 542.5,-180 536.5,-174 536.5,-168 536.5,-168 536.5,-156 536.5,-156 536.5,-150 542.5,-144 548.5,-144 548.5,-144 583.5,-144 583.5,-144 589.5,-144 595.5,-150 595.5,-156 595.5,-156 595.5,-168 595.5,-168 595.5,-174 589.5,-180 583.5,-180"/>
<text text-anchor="middle" x="566" y="-159.5" font-family="sans" font-size="10.00">counting</text>
</g>
<!-- 7&#45;&gt;0 -->
<g id="edge7" class="edge">
<title>7&#45;&gt;0</title>
<path fill="none" stroke="grey" stroke-width="2" d="M575.38,-143.75C580.59,-133.59 586.84,-120.34 591,-108 597.85,-87.7 602.78,-63.93 605.89,-46.06"/>
<polygon fill="grey" stroke="grey" stroke-width="2" points="609.37,-46.48 607.56,-36.04 602.47,-45.33 609.37,-46.48"/>
</g>
<!-- 43 -->
<g id="node44" class="node">
<title>43</title>
<path fill="none" stroke="#d88d56" stroke-width="2" d="M781.5,-108C781.5,-108 726.5,-108 726.5,-108 720.5,-108 714.5,-102 714.5,-96 714.5,-96 714.5,-84 714.5,-84 714.5,-78 720.5,-72 726.5,-72 726.5,-72 781.5,-72 781.5,-72 787.5,-72 793.5,-78 793.5,-84 793.5,-84 793.5,-96 793.5,-96 793.5,-102 787.5,-108 781.5,-108"/>
<text text-anchor="middle" x="754" y="-87.5" font-family="sans" font-size="10.00">analyse_stat</text>
</g>
<!-- 7&#45;&gt;43 -->
<g id="edge44" class="edge">
<title>7&#45;&gt;43</title>
<path fill="none" stroke="grey" stroke-width="2" d="M595.77,-147.41C598.54,-146.23 601.32,-145.07 604,-144 637.18,-130.74 675.14,-117.35 704.56,-107.34"/>
<polygon fill="grey" stroke="grey" stroke-width="2" points="705.85,-110.6 714.2,-104.08 703.6,-103.97 705.85,-110.6"/>
</g>
<!-- 8 -->
<g id="node9" class="node">
<title>8</title>
<path fill="none" stroke="#56d873" stroke-width="2" d="M498,-252C498,-252 452,-252 452,-252 446,-252 440,-246 440,-240 440,-240 440,-228 440,-228 440,-222 446,-216 452,-216 452,-216 498,-216 498,-216 504,-216 510,-222 510,-228 510,-228 510,-240 510,-240 510,-246 504,-252 498,-252"/>
<text text-anchor="middle" x="475" y="-231.5" font-family="sans" font-size="10.00">samTobam</text>
</g>
<!-- 8&#45;&gt;7 -->
<g id="edge14" class="edge">
<title>8&#45;&gt;7</title>
<path fill="none" stroke="grey" stroke-width="2" d="M497.49,-215.7C508.96,-206.88 523.06,-196.03 535.48,-186.47"/>
<polygon fill="grey" stroke="grey" stroke-width="2" points="537.97,-188.98 543.76,-180.1 533.7,-183.43 537.97,-188.98"/>
</g>
<!-- 9 -->
<g id="node10" class="node">
<title>9</title>
<path fill="none" stroke="#70d856" stroke-width="2" d="M457.5,-324C457.5,-324 422.5,-324 422.5,-324 416.5,-324 410.5,-318 410.5,-312 410.5,-312 410.5,-300 410.5,-300 410.5,-294 416.5,-288 422.5,-288 422.5,-288 457.5,-288 457.5,-288 463.5,-288 469.5,-294 469.5,-300 469.5,-300 469.5,-312 469.5,-312 469.5,-318 463.5,-324 457.5,-324"/>
<text text-anchor="middle" x="440" y="-303.5" font-family="sans" font-size="10.00">mapping</text>
</g>
<!-- 9&#45;&gt;8 -->
<g id="edge15" class="edge">
<title>9&#45;&gt;8</title>
<path fill="none" stroke="grey" stroke-width="2" d="M448.65,-287.7C452.64,-279.73 457.45,-270.1 461.87,-261.26"/>
<polygon fill="grey" stroke="grey" stroke-width="2" points="465.11,-262.61 466.45,-252.1 458.85,-259.48 465.11,-262.61"/>
</g>
<!-- 10 -->
<g id="node11" class="node">
<title>10</title>
<path fill="none" stroke="#56c9d8" stroke-width="2" d="M413,-396C413,-396 375,-396 375,-396 369,-396 363,-390 363,-384 363,-384 363,-372 363,-372 363,-366 369,-360 375,-360 375,-360 413,-360 413,-360 419,-360 425,-366 425,-372 425,-372 425,-384 425,-384 425,-390 419,-396 413,-396"/>
<text text-anchor="middle" x="394" y="-375.5" font-family="sans" font-size="10.00">trimming</text>
</g>
<!-- 10&#45;&gt;9 -->
<g id="edge16" class="edge">
<title>10&#45;&gt;9</title>
<path fill="none" stroke="grey" stroke-width="2" d="M405.37,-359.7C410.72,-351.56 417.2,-341.69 423.11,-332.7"/>
<polygon fill="grey" stroke="grey" stroke-width="2" points="426.19,-334.38 428.76,-324.1 420.34,-330.54 426.19,-334.38"/>
</g>
<!-- 11 -->
<g id="node12" class="node">
<title>11</title>
<path fill="none" stroke="#afd856" stroke-width="2" d="M397.5,-468C397.5,-468 290.5,-468 290.5,-468 284.5,-468 278.5,-462 278.5,-456 278.5,-456 278.5,-444 278.5,-444 278.5,-438 284.5,-432 290.5,-432 290.5,-432 397.5,-432 397.5,-432 403.5,-432 409.5,-438 409.5,-444 409.5,-444 409.5,-456 409.5,-456 409.5,-462 403.5,-468 397.5,-468"/>
<text text-anchor="middle" x="344" y="-447.5" font-family="sans" font-size="10.00">compresion_sequences</text>
</g>
<!-- 11&#45;&gt;10 -->
<g id="edge17" class="edge">
<title>11&#45;&gt;10</title>
<path fill="none" stroke="grey" stroke-width="2" d="M356.36,-431.7C362.23,-423.47 369.37,-413.48 375.84,-404.42"/>
<polygon fill="grey" stroke="grey" stroke-width="2" points="378.82,-406.28 381.78,-396.1 373.12,-402.21 378.82,-406.28"/>
</g>
<!-- 12 -->
<g id="node13" class="node">
<title>12</title>
<path fill="none" stroke="#d8cb56" stroke-width="2" d="M394.5,-540C394.5,-540 267.5,-540 267.5,-540 261.5,-540 255.5,-534 255.5,-528 255.5,-528 255.5,-516 255.5,-516 255.5,-510 261.5,-504 267.5,-504 267.5,-504 394.5,-504 394.5,-504 400.5,-504 406.5,-510 406.5,-516 406.5,-516 406.5,-528 406.5,-528 406.5,-534 400.5,-540 394.5,-540"/>
<text text-anchor="middle" x="331" y="-525" font-family="sans" font-size="10.00">telechargement_sequences</text>
<text text-anchor="middle" x="331" y="-514" font-family="sans" font-size="10.00">sracode: SRR10379721</text>
</g>
<!-- 12&#45;&gt;11 -->
<g id="edge18" class="edge">
<title>12&#45;&gt;11</title>
<path fill="none" stroke="grey" stroke-width="2" d="M334.21,-503.7C335.65,-495.98 337.37,-486.71 338.96,-478.11"/>
<polygon fill="grey" stroke="grey" stroke-width="2" points="342.44,-478.58 340.82,-468.1 335.56,-477.3 342.44,-478.58"/>
</g>
<!-- 13 -->
<g id="node14" class="node">
<title>13</title>
<path fill="none" stroke="#5692d8" stroke-width="2" d="M660.5,-180C660.5,-180 625.5,-180 625.5,-180 619.5,-180 613.5,-174 613.5,-168 613.5,-168 613.5,-156 613.5,-156 613.5,-150 619.5,-144 625.5,-144 625.5,-144 660.5,-144 660.5,-144 666.5,-144 672.5,-150 672.5,-156 672.5,-156 672.5,-168 672.5,-168 672.5,-174 666.5,-180 660.5,-180"/>
<text text-anchor="middle" x="643" y="-159.5" font-family="sans" font-size="10.00">counting</text>
</g>
<!-- 13&#45;&gt;0 -->
<g id="edge8" class="edge">
<title>13&#45;&gt;0</title>
<path fill="none" stroke="grey" stroke-width="2" d="M639.6,-143.88C635.97,-125.92 629.94,-96.9 624,-72 621.98,-63.54 619.62,-54.36 617.42,-46.06"/>
<polygon fill="grey" stroke="grey" stroke-width="2" points="620.72,-44.88 614.75,-36.13 613.96,-46.7 620.72,-44.88"/>
</g>
<!-- 13&#45;&gt;43 -->
<g id="edge45" class="edge">
<title>13&#45;&gt;43</title>
<path fill="none" stroke="grey" stroke-width="2" d="M670.15,-143.88C684.53,-134.81 702.38,-123.55 717.91,-113.76"/>
<polygon fill="grey" stroke="grey" stroke-width="2" points="720.15,-116.48 726.74,-108.19 716.42,-110.56 720.15,-116.48"/>
</g>
<!-- 14 -->
<g id="node15" class="node">
<title>14</title>
<path fill="none" stroke="#56d873" stroke-width="2" d="M621,-252C621,-252 575,-252 575,-252 569,-252 563,-246 563,-240 563,-240 563,-228 563,-228 563,-222 569,-216 575,-216 575,-216 621,-216 621,-216 627,-216 633,-222 633,-228 633,-228 633,-240 633,-240 633,-246 627,-252 621,-252"/>
<text text-anchor="middle" x="598" y="-231.5" font-family="sans" font-size="10.00">samTobam</text>
</g>
<!-- 14&#45;&gt;13 -->
<g id="edge19" class="edge">
<title>14&#45;&gt;13</title>
<path fill="none" stroke="grey" stroke-width="2" d="M609.12,-215.7C614.36,-207.56 620.7,-197.69 626.48,-188.7"/>
<polygon fill="grey" stroke="grey" stroke-width="2" points="629.54,-190.41 632,-180.1 623.65,-186.62 629.54,-190.41"/>
</g>
<!-- 15 -->
<g id="node16" class="node">
<title>15</title>
<path fill="none" stroke="#70d856" stroke-width="2" d="M535.5,-324C535.5,-324 500.5,-324 500.5,-324 494.5,-324 488.5,-318 488.5,-312 488.5,-312 488.5,-300 488.5,-300 488.5,-294 494.5,-288 500.5,-288 500.5,-288 535.5,-288 535.5,-288 541.5,-288 547.5,-294 547.5,-300 547.5,-300 547.5,-312 547.5,-312 547.5,-318 541.5,-324 535.5,-324"/>
<text text-anchor="middle" x="518" y="-303.5" font-family="sans" font-size="10.00">mapping</text>
</g>
<!-- 15&#45;&gt;14 -->
<g id="edge20" class="edge">
<title>15&#45;&gt;14</title>
<path fill="none" stroke="grey" stroke-width="2" d="M537.78,-287.7C547.75,-278.97 560.01,-268.24 570.86,-258.75"/>
<polygon fill="grey" stroke="grey" stroke-width="2" points="573.23,-261.32 578.45,-252.1 568.62,-256.06 573.23,-261.32"/>
</g>
<!-- 16 -->
<g id="node17" class="node">
<title>16</title>
<path fill="none" stroke="#56c9d8" stroke-width="2" d="M527,-396C527,-396 489,-396 489,-396 483,-396 477,-390 477,-384 477,-384 477,-372 477,-372 477,-366 483,-360 489,-360 489,-360 527,-360 527,-360 533,-360 539,-366 539,-372 539,-372 539,-384 539,-384 539,-390 533,-396 527,-396"/>
<text text-anchor="middle" x="508" y="-375.5" font-family="sans" font-size="10.00">trimming</text>
</g>
<!-- 16&#45;&gt;15 -->
<g id="edge21" class="edge">
<title>16&#45;&gt;15</title>
<path fill="none" stroke="grey" stroke-width="2" d="M510.47,-359.7C511.57,-351.98 512.9,-342.71 514.13,-334.11"/>
<polygon fill="grey" stroke="grey" stroke-width="2" points="517.61,-334.5 515.56,-324.1 510.68,-333.51 517.61,-334.5"/>
</g>
<!-- 17 -->
<g id="node18" class="node">
<title>17</title>
<path fill="none" stroke="#afd856" stroke-width="2" d="M556.5,-468C556.5,-468 449.5,-468 449.5,-468 443.5,-468 437.5,-462 437.5,-456 437.5,-456 437.5,-444 437.5,-444 437.5,-438 443.5,-432 449.5,-432 449.5,-432 556.5,-432 556.5,-432 562.5,-432 568.5,-438 568.5,-444 568.5,-444 568.5,-456 568.5,-456 568.5,-462 562.5,-468 556.5,-468"/>
<text text-anchor="middle" x="503" y="-447.5" font-family="sans" font-size="10.00">compresion_sequences</text>
</g>
<!-- 17&#45;&gt;16 -->
<g id="edge22" class="edge">
<title>17&#45;&gt;16</title>
<path fill="none" stroke="grey" stroke-width="2" d="M504.24,-431.7C504.79,-423.98 505.45,-414.71 506.06,-406.11"/>
<polygon fill="grey" stroke="grey" stroke-width="2" points="509.56,-406.33 506.78,-396.1 502.57,-405.83 509.56,-406.33"/>
</g>
<!-- 18 -->
<g id="node19" class="node">
<title>18</title>
<path fill="none" stroke="#d8cb56" stroke-width="2" d="M563.5,-540C563.5,-540 436.5,-540 436.5,-540 430.5,-540 424.5,-534 424.5,-528 424.5,-528 424.5,-516 424.5,-516 424.5,-510 430.5,-504 436.5,-504 436.5,-504 563.5,-504 563.5,-504 569.5,-504 575.5,-510 575.5,-516 575.5,-516 575.5,-528 575.5,-528 575.5,-534 569.5,-540 563.5,-540"/>
<text text-anchor="middle" x="500" y="-525" font-family="sans" font-size="10.00">telechargement_sequences</text>
<text text-anchor="middle" x="500" y="-514" font-family="sans" font-size="10.00">sracode: SRR10379722</text>
</g>
<!-- 18&#45;&gt;17 -->
<g id="edge23" class="edge">
<title>18&#45;&gt;17</title>
<path fill="none" stroke="grey" stroke-width="2" d="M500.74,-503.7C501.07,-495.98 501.47,-486.71 501.84,-478.11"/>
<polygon fill="grey" stroke="grey" stroke-width="2" points="505.34,-478.25 502.27,-468.1 498.34,-477.95 505.34,-478.25"/>
</g>
<!-- 19 -->
<g id="node20" class="node">
<title>19</title>
<path fill="none" stroke="#5692d8" stroke-width="2" d="M737.5,-180C737.5,-180 702.5,-180 702.5,-180 696.5,-180 690.5,-174 690.5,-168 690.5,-168 690.5,-156 690.5,-156 690.5,-150 696.5,-144 702.5,-144 702.5,-144 737.5,-144 737.5,-144 743.5,-144 749.5,-150 749.5,-156 749.5,-156 749.5,-168 749.5,-168 749.5,-174 743.5,-180 737.5,-180"/>
<text text-anchor="middle" x="720" y="-159.5" font-family="sans" font-size="10.00">counting</text>
</g>
<!-- 19&#45;&gt;0 -->
<g id="edge9" class="edge">
<title>19&#45;&gt;0</title>
<path fill="none" stroke="grey" stroke-width="2" d="M706.73,-143.87C687.49,-119.03 651.71,-72.85 629.48,-44.14"/>
<polygon fill="grey" stroke="grey" stroke-width="2" points="632.21,-41.95 623.32,-36.19 626.67,-46.24 632.21,-41.95"/>
</g>
<!-- 19&#45;&gt;43 -->
<g id="edge46" class="edge">
<title>19&#45;&gt;43</title>
<path fill="none" stroke="grey" stroke-width="2" d="M728.4,-143.7C732.27,-135.73 736.95,-126.1 741.24,-117.26"/>
<polygon fill="grey" stroke="grey" stroke-width="2" points="744.47,-118.63 745.69,-108.1 738.17,-115.57 744.47,-118.63"/>
</g>
<!-- 20 -->
<g id="node21" class="node">
<title>20</title>
<path fill="none" stroke="#56d873" stroke-width="2" d="M727,-252C727,-252 681,-252 681,-252 675,-252 669,-246 669,-240 669,-240 669,-228 669,-228 669,-222 675,-216 681,-216 681,-216 727,-216 727,-216 733,-216 739,-222 739,-228 739,-228 739,-240 739,-240 739,-246 733,-252 727,-252"/>
<text text-anchor="middle" x="704" y="-231.5" font-family="sans" font-size="10.00">samTobam</text>
</g>
<!-- 20&#45;&gt;19 -->
<g id="edge24" class="edge">
<title>20&#45;&gt;19</title>
<path fill="none" stroke="grey" stroke-width="2" d="M707.96,-215.7C709.72,-207.98 711.84,-198.71 713.8,-190.11"/>
<polygon fill="grey" stroke="grey" stroke-width="2" points="717.27,-190.63 716.09,-180.1 710.45,-189.07 717.27,-190.63"/>
</g>
<!-- 21 -->
<g id="node22" class="node">
<title>21</title>
<path fill="none" stroke="#70d856" stroke-width="2" d="M718.5,-324C718.5,-324 683.5,-324 683.5,-324 677.5,-324 671.5,-318 671.5,-312 671.5,-312 671.5,-300 671.5,-300 671.5,-294 677.5,-288 683.5,-288 683.5,-288 718.5,-288 718.5,-288 724.5,-288 730.5,-294 730.5,-300 730.5,-300 730.5,-312 730.5,-312 730.5,-318 724.5,-324 718.5,-324"/>
<text text-anchor="middle" x="701" y="-303.5" font-family="sans" font-size="10.00">mapping</text>
</g>
<!-- 21&#45;&gt;20 -->
<g id="edge25" class="edge">
<title>21&#45;&gt;20</title>
<path fill="none" stroke="grey" stroke-width="2" d="M701.74,-287.7C702.07,-279.98 702.47,-270.71 702.84,-262.11"/>
<polygon fill="grey" stroke="grey" stroke-width="2" points="706.34,-262.25 703.27,-252.1 699.34,-261.95 706.34,-262.25"/>
</g>
<!-- 22 -->
<g id="node23" class="node">
<title>22</title>
<path fill="none" stroke="#56c9d8" stroke-width="2" d="M702,-396C702,-396 664,-396 664,-396 658,-396 652,-390 652,-384 652,-384 652,-372 652,-372 652,-366 658,-360 664,-360 664,-360 702,-360 702,-360 708,-360 714,-366 714,-372 714,-372 714,-384 714,-384 714,-390 708,-396 702,-396"/>
<text text-anchor="middle" x="683" y="-375.5" font-family="sans" font-size="10.00">trimming</text>
</g>
<!-- 22&#45;&gt;21 -->
<g id="edge26" class="edge">
<title>22&#45;&gt;21</title>
<path fill="none" stroke="grey" stroke-width="2" d="M687.45,-359.7C689.45,-351.9 691.87,-342.51 694.1,-333.83"/>
<polygon fill="grey" stroke="grey" stroke-width="2" points="697.5,-334.66 696.6,-324.1 690.72,-332.92 697.5,-334.66"/>
</g>
<!-- 23 -->
<g id="node24" class="node">
<title>23</title>
<path fill="none" stroke="#afd856" stroke-width="2" d="M727.5,-468C727.5,-468 620.5,-468 620.5,-468 614.5,-468 608.5,-462 608.5,-456 608.5,-456 608.5,-444 608.5,-444 608.5,-438 614.5,-432 620.5,-432 620.5,-432 727.5,-432 727.5,-432 733.5,-432 739.5,-438 739.5,-444 739.5,-444 739.5,-456 739.5,-456 739.5,-462 733.5,-468 727.5,-468"/>
<text text-anchor="middle" x="674" y="-447.5" font-family="sans" font-size="10.00">compresion_sequences</text>
</g>
<!-- 23&#45;&gt;22 -->
<g id="edge27" class="edge">
<title>23&#45;&gt;22</title>
<path fill="none" stroke="grey" stroke-width="2" d="M676.22,-431.7C677.22,-423.98 678.41,-414.71 679.51,-406.11"/>
<polygon fill="grey" stroke="grey" stroke-width="2" points="683,-406.47 680.8,-396.1 676.05,-405.58 683,-406.47"/>
</g>
<!-- 24 -->
<g id="node25" class="node">
<title>24</title>
<path fill="none" stroke="#d8cb56" stroke-width="2" d="M732.5,-540C732.5,-540 605.5,-540 605.5,-540 599.5,-540 593.5,-534 593.5,-528 593.5,-528 593.5,-516 593.5,-516 593.5,-510 599.5,-504 605.5,-504 605.5,-504 732.5,-504 732.5,-504 738.5,-504 744.5,-510 744.5,-516 744.5,-516 744.5,-528 744.5,-528 744.5,-534 738.5,-540 732.5,-540"/>
<text text-anchor="middle" x="669" y="-525" font-family="sans" font-size="10.00">telechargement_sequences</text>
<text text-anchor="middle" x="669" y="-514" font-family="sans" font-size="10.00">sracode: SRR10379723</text>
</g>
<!-- 24&#45;&gt;23 -->
<g id="edge28" class="edge">
<title>24&#45;&gt;23</title>
<path fill="none" stroke="grey" stroke-width="2" d="M670.24,-503.7C670.79,-495.98 671.45,-486.71 672.06,-478.11"/>
<polygon fill="grey" stroke="grey" stroke-width="2" points="675.56,-478.33 672.78,-468.1 668.57,-477.83 675.56,-478.33"/>
</g>
<!-- 25 -->
<g id="node26" class="node">
<title>25</title>
<path fill="none" stroke="#5692d8" stroke-width="2" d="M814.5,-180C814.5,-180 779.5,-180 779.5,-180 773.5,-180 767.5,-174 767.5,-168 767.5,-168 767.5,-156 767.5,-156 767.5,-150 773.5,-144 779.5,-144 779.5,-144 814.5,-144 814.5,-144 820.5,-144 826.5,-150 826.5,-156 826.5,-156 826.5,-168 826.5,-168 826.5,-174 820.5,-180 814.5,-180"/>
<text text-anchor="middle" x="797" y="-159.5" font-family="sans" font-size="10.00">counting</text>
</g>
<!-- 25&#45;&gt;0 -->
<g id="edge10" class="edge">
<title>25&#45;&gt;0</title>
<path fill="none" stroke="grey" stroke-width="2" d="M804.07,-143.66C810.76,-124.17 817.66,-92.56 802,-72 783.37,-47.53 697.96,-31.48 647.55,-23.96"/>
<polygon fill="grey" stroke="grey" stroke-width="2" points="647.76,-20.46 637.36,-22.49 646.75,-27.38 647.76,-20.46"/>
</g>
<!-- 25&#45;&gt;43 -->
<g id="edge47" class="edge">
<title>25&#45;&gt;43</title>
<path fill="none" stroke="grey" stroke-width="2" d="M786.37,-143.7C781.37,-135.56 775.31,-125.69 769.79,-116.7"/>
<polygon fill="grey" stroke="grey" stroke-width="2" points="772.72,-114.79 764.51,-108.1 766.76,-118.46 772.72,-114.79"/>
</g>
<!-- 26 -->
<g id="node27" class="node">
<title>26</title>
<path fill="none" stroke="#56d873" stroke-width="2" d="M837,-252C837,-252 791,-252 791,-252 785,-252 779,-246 779,-240 779,-240 779,-228 779,-228 779,-222 785,-216 791,-216 791,-216 837,-216 837,-216 843,-216 849,-222 849,-228 849,-228 849,-240 849,-240 849,-246 843,-252 837,-252"/>
<text text-anchor="middle" x="814" y="-231.5" font-family="sans" font-size="10.00">samTobam</text>
</g>
<!-- 26&#45;&gt;25 -->
<g id="edge29" class="edge">
<title>26&#45;&gt;25</title>
<path fill="none" stroke="grey" stroke-width="2" d="M809.8,-215.7C807.9,-207.9 805.62,-198.51 803.52,-189.83"/>
<polygon fill="grey" stroke="grey" stroke-width="2" points="806.92,-189 801.15,-180.1 800.11,-190.65 806.92,-189"/>
</g>
<!-- 27 -->
<g id="node28" class="node">
<title>27</title>
<path fill="none" stroke="#70d856" stroke-width="2" d="M836.5,-324C836.5,-324 801.5,-324 801.5,-324 795.5,-324 789.5,-318 789.5,-312 789.5,-312 789.5,-300 789.5,-300 789.5,-294 795.5,-288 801.5,-288 801.5,-288 836.5,-288 836.5,-288 842.5,-288 848.5,-294 848.5,-300 848.5,-300 848.5,-312 848.5,-312 848.5,-318 842.5,-324 836.5,-324"/>
<text text-anchor="middle" x="819" y="-303.5" font-family="sans" font-size="10.00">mapping</text>
</g>
<!-- 27&#45;&gt;26 -->
<g id="edge30" class="edge">
<title>27&#45;&gt;26</title>
<path fill="none" stroke="grey" stroke-width="2" d="M817.76,-287.7C817.21,-279.98 816.55,-270.71 815.94,-262.11"/>
<polygon fill="grey" stroke="grey" stroke-width="2" points="819.43,-261.83 815.22,-252.1 812.44,-262.33 819.43,-261.83"/>
</g>
<!-- 28 -->
<g id="node29" class="node">
<title>28</title>
<path fill="none" stroke="#56c9d8" stroke-width="2" d="M847,-396C847,-396 809,-396 809,-396 803,-396 797,-390 797,-384 797,-384 797,-372 797,-372 797,-366 803,-360 809,-360 809,-360 847,-360 847,-360 853,-360 859,-366 859,-372 859,-372 859,-384 859,-384 859,-390 853,-396 847,-396"/>
<text text-anchor="middle" x="828" y="-375.5" font-family="sans" font-size="10.00">trimming</text>
</g>
<!-- 28&#45;&gt;27 -->
<g id="edge31" class="edge">
<title>28&#45;&gt;27</title>
<path fill="none" stroke="grey" stroke-width="2" d="M825.78,-359.7C824.78,-351.98 823.59,-342.71 822.49,-334.11"/>
<polygon fill="grey" stroke="grey" stroke-width="2" points="825.95,-333.58 821.2,-324.1 819,-334.47 825.95,-333.58"/>
</g>
<!-- 29 -->
<g id="node30" class="node">
<title>29</title>
<path fill="none" stroke="#afd856" stroke-width="2" d="M886.5,-468C886.5,-468 779.5,-468 779.5,-468 773.5,-468 767.5,-462 767.5,-456 767.5,-456 767.5,-444 767.5,-444 767.5,-438 773.5,-432 779.5,-432 779.5,-432 886.5,-432 886.5,-432 892.5,-432 898.5,-438 898.5,-444 898.5,-444 898.5,-456 898.5,-456 898.5,-462 892.5,-468 886.5,-468"/>
<text text-anchor="middle" x="833" y="-447.5" font-family="sans" font-size="10.00">compresion_sequences</text>
</g>
<!-- 29&#45;&gt;28 -->
<g id="edge32" class="edge">
<title>29&#45;&gt;28</title>
<path fill="none" stroke="grey" stroke-width="2" d="M831.76,-431.7C831.21,-423.98 830.55,-414.71 829.94,-406.11"/>
<polygon fill="grey" stroke="grey" stroke-width="2" points="833.43,-405.83 829.22,-396.1 826.44,-406.33 833.43,-405.83"/>
</g>
<!-- 30 -->
<g id="node31" class="node">
<title>30</title>
<path fill="none" stroke="#d8cb56" stroke-width="2" d="M901.5,-540C901.5,-540 774.5,-540 774.5,-540 768.5,-540 762.5,-534 762.5,-528 762.5,-528 762.5,-516 762.5,-516 762.5,-510 768.5,-504 774.5,-504 774.5,-504 901.5,-504 901.5,-504 907.5,-504 913.5,-510 913.5,-516 913.5,-516 913.5,-528 913.5,-528 913.5,-534 907.5,-540 901.5,-540"/>
<text text-anchor="middle" x="838" y="-525" font-family="sans" font-size="10.00">telechargement_sequences</text>
<text text-anchor="middle" x="838" y="-514" font-family="sans" font-size="10.00">sracode: SRR10379724</text>
</g>
<!-- 30&#45;&gt;29 -->
<g id="edge33" class="edge">
<title>30&#45;&gt;29</title>
<path fill="none" stroke="grey" stroke-width="2" d="M836.76,-503.7C836.21,-495.98 835.55,-486.71 834.94,-478.11"/>
<polygon fill="grey" stroke="grey" stroke-width="2" points="838.43,-477.83 834.22,-468.1 831.44,-478.33 838.43,-477.83"/>
</g>
<!-- 31 -->
<g id="node32" class="node">
<title>31</title>
<path fill="none" stroke="#5692d8" stroke-width="2" d="M891.5,-180C891.5,-180 856.5,-180 856.5,-180 850.5,-180 844.5,-174 844.5,-168 844.5,-168 844.5,-156 844.5,-156 844.5,-150 850.5,-144 856.5,-144 856.5,-144 891.5,-144 891.5,-144 897.5,-144 903.5,-150 903.5,-156 903.5,-156 903.5,-168 903.5,-168 903.5,-174 897.5,-180 891.5,-180"/>
<text text-anchor="middle" x="874" y="-159.5" font-family="sans" font-size="10.00">counting</text>
</g>
<!-- 31&#45;&gt;0 -->
<g id="edge11" class="edge">
<title>31&#45;&gt;0</title>
<path fill="none" stroke="grey" stroke-width="2" d="M868.38,-143.8C860.85,-123.51 845.52,-90.25 821,-72 769.25,-33.48 692.62,-22.77 647.36,-19.9"/>
<polygon fill="grey" stroke="grey" stroke-width="2" points="647.28,-16.39 637.1,-19.36 646.9,-23.38 647.28,-16.39"/>
</g>
<!-- 31&#45;&gt;43 -->
<g id="edge48" class="edge">
<title>31&#45;&gt;43</title>
<path fill="none" stroke="grey" stroke-width="2" d="M844.64,-143.88C828.95,-134.72 809.44,-123.34 792.55,-113.48"/>
<polygon fill="grey" stroke="grey" stroke-width="2" points="793.87,-110.21 783.47,-108.19 790.34,-116.25 793.87,-110.21"/>
</g>
<!-- 32 -->
<g id="node33" class="node">
<title>32</title>
<path fill="none" stroke="#56d873" stroke-width="2" d="M936,-252C936,-252 890,-252 890,-252 884,-252 878,-246 878,-240 878,-240 878,-228 878,-228 878,-222 884,-216 890,-216 890,-216 936,-216 936,-216 942,-216 948,-222 948,-228 948,-228 948,-240 948,-240 948,-246 942,-252 936,-252"/>
<text text-anchor="middle" x="913" y="-231.5" font-family="sans" font-size="10.00">samTobam</text>
</g>
<!-- 32&#45;&gt;31 -->
<g id="edge34" class="edge">
<title>32&#45;&gt;31</title>
<path fill="none" stroke="grey" stroke-width="2" d="M903.36,-215.7C898.87,-207.64 893.44,-197.89 888.48,-188.98"/>
<polygon fill="grey" stroke="grey" stroke-width="2" points="891.45,-187.14 883.53,-180.1 885.34,-190.54 891.45,-187.14"/>
</g>
<!-- 33 -->
<g id="node34" class="node">
<title>33</title>
<path fill="none" stroke="#70d856" stroke-width="2" d="M934.5,-324C934.5,-324 899.5,-324 899.5,-324 893.5,-324 887.5,-318 887.5,-312 887.5,-312 887.5,-300 887.5,-300 887.5,-294 893.5,-288 899.5,-288 899.5,-288 934.5,-288 934.5,-288 940.5,-288 946.5,-294 946.5,-300 946.5,-300 946.5,-312 946.5,-312 946.5,-318 940.5,-324 934.5,-324"/>
<text text-anchor="middle" x="917" y="-303.5" font-family="sans" font-size="10.00">mapping</text>
</g>
<!-- 33&#45;&gt;32 -->
<g id="edge35" class="edge">
<title>33&#45;&gt;32</title>
<path fill="none" stroke="grey" stroke-width="2" d="M916.01,-287.7C915.57,-279.98 915.04,-270.71 914.55,-262.11"/>
<polygon fill="grey" stroke="grey" stroke-width="2" points="918.04,-261.89 913.98,-252.1 911.05,-262.29 918.04,-261.89"/>
</g>
<!-- 34 -->
<g id="node35" class="node">
<title>34</title>
<path fill="none" stroke="#56c9d8" stroke-width="2" d="M944,-396C944,-396 906,-396 906,-396 900,-396 894,-390 894,-384 894,-384 894,-372 894,-372 894,-366 900,-360 906,-360 906,-360 944,-360 944,-360 950,-360 956,-366 956,-372 956,-372 956,-384 956,-384 956,-390 950,-396 944,-396"/>
<text text-anchor="middle" x="925" y="-375.5" font-family="sans" font-size="10.00">trimming</text>
</g>
<!-- 34&#45;&gt;33 -->
<g id="edge36" class="edge">
<title>34&#45;&gt;33</title>
<path fill="none" stroke="grey" stroke-width="2" d="M923.02,-359.7C922.14,-351.98 921.08,-342.71 920.1,-334.11"/>
<polygon fill="grey" stroke="grey" stroke-width="2" points="923.57,-333.64 918.95,-324.1 916.61,-334.44 923.57,-333.64"/>
</g>
<!-- 35 -->
<g id="node36" class="node">
<title>35</title>
<path fill="none" stroke="#afd856" stroke-width="2" d="M1050.5,-468C1050.5,-468 943.5,-468 943.5,-468 937.5,-468 931.5,-462 931.5,-456 931.5,-456 931.5,-444 931.5,-444 931.5,-438 937.5,-432 943.5,-432 943.5,-432 1050.5,-432 1050.5,-432 1056.5,-432 1062.5,-438 1062.5,-444 1062.5,-444 1062.5,-456 1062.5,-456 1062.5,-462 1056.5,-468 1050.5,-468"/>
<text text-anchor="middle" x="997" y="-447.5" font-family="sans" font-size="10.00">compresion_sequences</text>
</g>
<!-- 35&#45;&gt;34 -->
<g id="edge37" class="edge">
<title>35&#45;&gt;34</title>
<path fill="none" stroke="grey" stroke-width="2" d="M979.2,-431.7C970.4,-423.14 959.62,-412.66 950,-403.3"/>
<polygon fill="grey" stroke="grey" stroke-width="2" points="952.2,-400.57 942.59,-396.1 947.32,-405.58 952.2,-400.57"/>
</g>
<!-- 36 -->
<g id="node37" class="node">
<title>36</title>
<path fill="none" stroke="#d8cb56" stroke-width="2" d="M1070.5,-540C1070.5,-540 943.5,-540 943.5,-540 937.5,-540 931.5,-534 931.5,-528 931.5,-528 931.5,-516 931.5,-516 931.5,-510 937.5,-504 943.5,-504 943.5,-504 1070.5,-504 1070.5,-504 1076.5,-504 1082.5,-510 1082.5,-516 1082.5,-516 1082.5,-528 1082.5,-528 1082.5,-534 1076.5,-540 1070.5,-540"/>
<text text-anchor="middle" x="1007" y="-525" font-family="sans" font-size="10.00">telechargement_sequences</text>
<text text-anchor="middle" x="1007" y="-514" font-family="sans" font-size="10.00">sracode: SRR10379725</text>
</g>
<!-- 36&#45;&gt;35 -->
<g id="edge38" class="edge">
<title>36&#45;&gt;35</title>
<path fill="none" stroke="grey" stroke-width="2" d="M1004.53,-503.7C1003.43,-495.98 1002.1,-486.71 1000.87,-478.11"/>
<polygon fill="grey" stroke="grey" stroke-width="2" points="1004.32,-477.51 999.44,-468.1 997.39,-478.5 1004.32,-477.51"/>
</g>
<!-- 37 -->
<g id="node38" class="node">
<title>37</title>
<path fill="none" stroke="#5692d8" stroke-width="2" d="M968.5,-180C968.5,-180 933.5,-180 933.5,-180 927.5,-180 921.5,-174 921.5,-168 921.5,-168 921.5,-156 921.5,-156 921.5,-150 927.5,-144 933.5,-144 933.5,-144 968.5,-144 968.5,-144 974.5,-144 980.5,-150 980.5,-156 980.5,-156 980.5,-168 980.5,-168 980.5,-174 974.5,-180 968.5,-180"/>
<text text-anchor="middle" x="951" y="-159.5" font-family="sans" font-size="10.00">counting</text>
</g>
<!-- 37&#45;&gt;0 -->
<g id="edge12" class="edge">
<title>37&#45;&gt;0</title>
<path fill="none" stroke="grey" stroke-width="2" d="M936.46,-143.71C918.34,-123.33 885.43,-89.99 850,-72 783.54,-38.25 696.03,-25.88 647.15,-21.43"/>
<polygon fill="grey" stroke="grey" stroke-width="2" points="647.29,-17.93 637.03,-20.57 646.7,-24.91 647.29,-17.93"/>
</g>
<!-- 37&#45;&gt;43 -->
<g id="edge49" class="edge">
<title>37&#45;&gt;43</title>
<path fill="none" stroke="grey" stroke-width="2" d="M921.3,-147.74C918.18,-146.44 915.03,-145.17 912,-144 876.06,-130.17 834.78,-116.39 803.43,-106.36"/>
<polygon fill="grey" stroke="grey" stroke-width="2" points="804.21,-102.93 793.62,-103.23 802.09,-109.6 804.21,-102.93"/>
</g>
<!-- 38 -->
<g id="node39" class="node">
<title>38</title>
<path fill="none" stroke="#56d873" stroke-width="2" d="M1030,-252C1030,-252 984,-252 984,-252 978,-252 972,-246 972,-240 972,-240 972,-228 972,-228 972,-222 978,-216 984,-216 984,-216 1030,-216 1030,-216 1036,-216 1042,-222 1042,-228 1042,-228 1042,-240 1042,-240 1042,-246 1036,-252 1030,-252"/>
<text text-anchor="middle" x="1007" y="-231.5" font-family="sans" font-size="10.00">samTobam</text>
</g>
<!-- 38&#45;&gt;37 -->
<g id="edge39" class="edge">
<title>38&#45;&gt;37</title>
<path fill="none" stroke="grey" stroke-width="2" d="M993.16,-215.7C986.51,-207.39 978.42,-197.28 971.11,-188.14"/>
<polygon fill="grey" stroke="grey" stroke-width="2" points="973.66,-185.73 964.68,-180.1 968.2,-190.1 973.66,-185.73"/>
</g>
<!-- 39 -->
<g id="node40" class="node">
<title>39</title>
<path fill="none" stroke="#70d856" stroke-width="2" d="M1028.5,-324C1028.5,-324 993.5,-324 993.5,-324 987.5,-324 981.5,-318 981.5,-312 981.5,-312 981.5,-300 981.5,-300 981.5,-294 987.5,-288 993.5,-288 993.5,-288 1028.5,-288 1028.5,-288 1034.5,-288 1040.5,-294 1040.5,-300 1040.5,-300 1040.5,-312 1040.5,-312 1040.5,-318 1034.5,-324 1028.5,-324"/>
<text text-anchor="middle" x="1011" y="-303.5" font-family="sans" font-size="10.00">mapping</text>
</g>
<!-- 39&#45;&gt;38 -->
<g id="edge40" class="edge">
<title>39&#45;&gt;38</title>
<path fill="none" stroke="grey" stroke-width="2" d="M1010.01,-287.7C1009.57,-279.98 1009.04,-270.71 1008.55,-262.11"/>
<polygon fill="grey" stroke="grey" stroke-width="2" points="1012.04,-261.89 1007.98,-252.1 1005.05,-262.29 1012.04,-261.89"/>
</g>
<!-- 40 -->
<g id="node41" class="node">
<title>40</title>
<path fill="none" stroke="#56c9d8" stroke-width="2" d="M1031,-396C1031,-396 993,-396 993,-396 987,-396 981,-390 981,-384 981,-384 981,-372 981,-372 981,-366 987,-360 993,-360 993,-360 1031,-360 1031,-360 1037,-360 1043,-366 1043,-372 1043,-372 1043,-384 1043,-384 1043,-390 1037,-396 1031,-396"/>
<text text-anchor="middle" x="1012" y="-375.5" font-family="sans" font-size="10.00">trimming</text>
</g>
<!-- 40&#45;&gt;39 -->
<g id="edge41" class="edge">
<title>40&#45;&gt;39</title>
<path fill="none" stroke="grey" stroke-width="2" d="M1011.75,-359.7C1011.64,-351.98 1011.51,-342.71 1011.39,-334.11"/>
<polygon fill="grey" stroke="grey" stroke-width="2" points="1014.89,-334.05 1011.24,-324.1 1007.89,-334.15 1014.89,-334.05"/>
</g>
<!-- 41 -->
<g id="node42" class="node">
<title>41</title>
<path fill="none" stroke="#afd856" stroke-width="2" d="M1216.5,-468C1216.5,-468 1109.5,-468 1109.5,-468 1103.5,-468 1097.5,-462 1097.5,-456 1097.5,-456 1097.5,-444 1097.5,-444 1097.5,-438 1103.5,-432 1109.5,-432 1109.5,-432 1216.5,-432 1216.5,-432 1222.5,-432 1228.5,-438 1228.5,-444 1228.5,-444 1228.5,-456 1228.5,-456 1228.5,-462 1222.5,-468 1216.5,-468"/>
<text text-anchor="middle" x="1163" y="-447.5" font-family="sans" font-size="10.00">compresion_sequences</text>
</g>
<!-- 41&#45;&gt;40 -->
<g id="edge42" class="edge">
<title>41&#45;&gt;40</title>
<path fill="none" stroke="grey" stroke-width="2" d="M1126.06,-431.88C1103.81,-421.56 1075.44,-408.41 1052.57,-397.81"/>
<polygon fill="grey" stroke="grey" stroke-width="2" points="1054,-394.61 1043.45,-393.58 1051.06,-400.96 1054,-394.61"/>
</g>
<!-- 42 -->
<g id="node43" class="node">
<title>42</title>
<path fill="none" stroke="#d8cb56" stroke-width="2" d="M1239.5,-540C1239.5,-540 1112.5,-540 1112.5,-540 1106.5,-540 1100.5,-534 1100.5,-528 1100.5,-528 1100.5,-516 1100.5,-516 1100.5,-510 1106.5,-504 1112.5,-504 1112.5,-504 1239.5,-504 1239.5,-504 1245.5,-504 1251.5,-510 1251.5,-516 1251.5,-516 1251.5,-528 1251.5,-528 1251.5,-534 1245.5,-540 1239.5,-540"/>
<text text-anchor="middle" x="1176" y="-525" font-family="sans" font-size="10.00">telechargement_sequences</text>
<text text-anchor="middle" x="1176" y="-514" font-family="sans" font-size="10.00">sracode: SRR10379726</text>
</g>
<!-- 42&#45;&gt;41 -->
<g id="edge43" class="edge">
<title>42&#45;&gt;41</title>
<path fill="none" stroke="grey" stroke-width="2" d="M1172.79,-503.7C1171.35,-495.98 1169.63,-486.71 1168.04,-478.11"/>
<polygon fill="grey" stroke="grey" stroke-width="2" points="1171.44,-477.3 1166.18,-468.1 1164.56,-478.58 1171.44,-477.3"/>
</g>
<!-- 43&#45;&gt;0 -->
<g id="edge13" class="edge">
<title>43&#45;&gt;0</title>
<path fill="none" stroke="grey" stroke-width="2" d="M718.77,-71.88C696.77,-61.18 668.51,-47.44 646.3,-36.65"/>
<polygon fill="grey" stroke="grey" stroke-width="2" points="647.72,-33.44 637.2,-32.22 644.66,-39.74 647.72,-33.44"/>
</g>
</g>
</svg>
