<?xml version="1.0" encoding="UTF-8" standalone="no"?>
<!DOCTYPE svg PUBLIC "-//W3C//DTD SVG 1.1//EN"
 "http://www.w3.org/Graphics/SVG/1.1/DTD/svg11.dtd">
<!-- Generated by graphviz version 2.50.0 (0)
 -->
<!-- Title: snakemake_dag Pages: 1 -->
<svg width="1004pt" height="476pt"
 viewBox="0.00 0.00 1004.00 476.00" xmlns="http://www.w3.org/2000/svg" xmlns:xlink="http://www.w3.org/1999/xlink">
<g id="graph0" class="graph" transform="scale(1 1) rotate(0) translate(4 472)">
<title>snakemake_dag</title>
<polygon fill="white" stroke="transparent" points="-4,4 -4,-472 1000,-472 1000,4 -4,4"/>
<!-- 0 -->
<g id="node1" class="node">
<title>0</title>
<path fill="none" stroke="#56d8d8" stroke-width="2" d="M510.5,-36C510.5,-36 480.5,-36 480.5,-36 474.5,-36 468.5,-30 468.5,-24 468.5,-24 468.5,-12 468.5,-12 468.5,-6 474.5,0 480.5,0 480.5,0 510.5,0 510.5,0 516.5,0 522.5,-6 522.5,-12 522.5,-12 522.5,-24 522.5,-24 522.5,-30 516.5,-36 510.5,-36"/>
<text text-anchor="middle" x="495.5" y="-15.5" font-family="sans" font-size="10.00">all</text>
</g>
<!-- 1 -->
<g id="node2" class="node">
<title>1</title>
<path fill="none" stroke="#59d856" stroke-width="2" d="M321,-108C321,-108 286,-108 286,-108 280,-108 274,-102 274,-96 274,-96 274,-84 274,-84 274,-78 280,-72 286,-72 286,-72 321,-72 321,-72 327,-72 333,-78 333,-84 333,-84 333,-96 333,-96 333,-102 327,-108 321,-108"/>
<text text-anchor="middle" x="303.5" y="-87.5" font-family="sans" font-size="10.00">counting</text>
</g>
<!-- 1&#45;&gt;0 -->
<g id="edge1" class="edge">
<title>1&#45;&gt;0</title>
<path fill="none" stroke="grey" stroke-width="2" d="M333.21,-75.77C336.33,-74.46 339.47,-73.18 342.5,-72 381.84,-56.64 427.7,-41.05 458.88,-30.8"/>
<polygon fill="grey" stroke="grey" stroke-width="2" points="460.05,-34.1 468.46,-27.66 457.87,-27.45 460.05,-34.1"/>
</g>
<!-- 2 -->
<g id="node3" class="node">
<title>2</title>
<path fill="none" stroke="#569ad8" stroke-width="2" stroke-dasharray="5,2" d="M511.5,-180C511.5,-180 481.5,-180 481.5,-180 475.5,-180 469.5,-174 469.5,-168 469.5,-168 469.5,-156 469.5,-156 469.5,-150 475.5,-144 481.5,-144 481.5,-144 511.5,-144 511.5,-144 517.5,-144 523.5,-150 523.5,-156 523.5,-156 523.5,-168 523.5,-168 523.5,-174 517.5,-180 511.5,-180"/>
<text text-anchor="middle" x="496.5" y="-159.5" font-family="sans" font-size="10.00">gffTogtf</text>
</g>
<!-- 2&#45;&gt;1 -->
<g id="edge7" class="edge">
<title>2&#45;&gt;1</title>
<path fill="none" stroke="grey" stroke-width="2" d="M469.27,-148.35C465.67,-146.82 462.02,-145.33 458.5,-144 407.99,-124.94 393.1,-126.81 342.5,-108 342.4,-107.96 342.31,-107.93 342.21,-107.89"/>
<polygon fill="grey" stroke="grey" stroke-width="2" points="343.76,-104.74 333.17,-104.34 341.2,-111.25 343.76,-104.74"/>
</g>
<!-- 8 -->
<g id="node9" class="node">
<title>8</title>
<path fill="none" stroke="#59d856" stroke-width="2" d="M398,-108C398,-108 363,-108 363,-108 357,-108 351,-102 351,-96 351,-96 351,-84 351,-84 351,-78 357,-72 363,-72 363,-72 398,-72 398,-72 404,-72 410,-78 410,-84 410,-84 410,-96 410,-96 410,-102 404,-108 398,-108"/>
<text text-anchor="middle" x="380.5" y="-87.5" font-family="sans" font-size="10.00">counting</text>
</g>
<!-- 2&#45;&gt;8 -->
<g id="edge13" class="edge">
<title>2&#45;&gt;8</title>
<path fill="none" stroke="grey" stroke-width="2" d="M469.3,-144.59C453.93,-135.31 434.5,-123.59 417.74,-113.47"/>
<polygon fill="grey" stroke="grey" stroke-width="2" points="419.11,-110.21 408.74,-108.04 415.49,-116.2 419.11,-110.21"/>
</g>
<!-- 14 -->
<g id="node15" class="node">
<title>14</title>
<path fill="none" stroke="#59d856" stroke-width="2" d="M475,-108C475,-108 440,-108 440,-108 434,-108 428,-102 428,-96 428,-96 428,-84 428,-84 428,-78 434,-72 440,-72 440,-72 475,-72 475,-72 481,-72 487,-78 487,-84 487,-84 487,-96 487,-96 487,-102 481,-108 475,-108"/>
<text text-anchor="middle" x="457.5" y="-87.5" font-family="sans" font-size="10.00">counting</text>
</g>
<!-- 2&#45;&gt;14 -->
<g id="edge19" class="edge">
<title>2&#45;&gt;14</title>
<path fill="none" stroke="grey" stroke-width="2" d="M486.86,-143.7C482.37,-135.64 476.94,-125.89 471.98,-116.98"/>
<polygon fill="grey" stroke="grey" stroke-width="2" points="474.95,-115.14 467.03,-108.1 468.84,-118.54 474.95,-115.14"/>
</g>
<!-- 20 -->
<g id="node21" class="node">
<title>20</title>
<path fill="none" stroke="#59d856" stroke-width="2" d="M552,-108C552,-108 517,-108 517,-108 511,-108 505,-102 505,-96 505,-96 505,-84 505,-84 505,-78 511,-72 517,-72 517,-72 552,-72 552,-72 558,-72 564,-78 564,-84 564,-84 564,-96 564,-96 564,-102 558,-108 552,-108"/>
<text text-anchor="middle" x="534.5" y="-87.5" font-family="sans" font-size="10.00">counting</text>
</g>
<!-- 2&#45;&gt;20 -->
<g id="edge25" class="edge">
<title>2&#45;&gt;20</title>
<path fill="none" stroke="grey" stroke-width="2" d="M505.89,-143.7C510.26,-135.64 515.56,-125.89 520.4,-116.98"/>
<polygon fill="grey" stroke="grey" stroke-width="2" points="523.52,-118.56 525.21,-108.1 517.37,-115.22 523.52,-118.56"/>
</g>
<!-- 26 -->
<g id="node27" class="node">
<title>26</title>
<path fill="none" stroke="#59d856" stroke-width="2" d="M629,-108C629,-108 594,-108 594,-108 588,-108 582,-102 582,-96 582,-96 582,-84 582,-84 582,-78 588,-72 594,-72 594,-72 629,-72 629,-72 635,-72 641,-78 641,-84 641,-84 641,-96 641,-96 641,-102 635,-108 629,-108"/>
<text text-anchor="middle" x="611.5" y="-87.5" font-family="sans" font-size="10.00">counting</text>
</g>
<!-- 2&#45;&gt;26 -->
<g id="edge31" class="edge">
<title>2&#45;&gt;26</title>
<path fill="none" stroke="grey" stroke-width="2" d="M523.75,-144.41C538.88,-135.2 557.92,-123.61 574.39,-113.59"/>
<polygon fill="grey" stroke="grey" stroke-width="2" points="576.52,-116.39 583.24,-108.2 572.88,-110.41 576.52,-116.39"/>
</g>
<!-- 32 -->
<g id="node33" class="node">
<title>32</title>
<path fill="none" stroke="#59d856" stroke-width="2" d="M706,-108C706,-108 671,-108 671,-108 665,-108 659,-102 659,-96 659,-96 659,-84 659,-84 659,-78 665,-72 671,-72 671,-72 706,-72 706,-72 712,-72 718,-78 718,-84 718,-84 718,-96 718,-96 718,-102 712,-108 706,-108"/>
<text text-anchor="middle" x="688.5" y="-87.5" font-family="sans" font-size="10.00">counting</text>
</g>
<!-- 2&#45;&gt;32 -->
<g id="edge37" class="edge">
<title>2&#45;&gt;32</title>
<path fill="none" stroke="grey" stroke-width="2" d="M523.81,-147.97C527.05,-146.56 530.33,-145.21 533.5,-144 581.45,-125.7 597.73,-126.93 649.12,-108.29"/>
<polygon fill="grey" stroke="grey" stroke-width="2" points="650.61,-111.47 658.77,-104.71 648.18,-104.91 650.61,-111.47"/>
</g>
<!-- 3 -->
<g id="node4" class="node">
<title>3</title>
<path fill="none" stroke="#97d856" stroke-width="2" d="M234.5,-180C234.5,-180 188.5,-180 188.5,-180 182.5,-180 176.5,-174 176.5,-168 176.5,-168 176.5,-156 176.5,-156 176.5,-150 182.5,-144 188.5,-144 188.5,-144 234.5,-144 234.5,-144 240.5,-144 246.5,-150 246.5,-156 246.5,-156 246.5,-168 246.5,-168 246.5,-174 240.5,-180 234.5,-180"/>
<text text-anchor="middle" x="211.5" y="-159.5" font-family="sans" font-size="10.00">samTobam</text>
</g>
<!-- 3&#45;&gt;1 -->
<g id="edge8" class="edge">
<title>3&#45;&gt;1</title>
<path fill="none" stroke="grey" stroke-width="2" d="M234.24,-143.7C245.94,-134.8 260.36,-123.82 273.01,-114.2"/>
<polygon fill="grey" stroke="grey" stroke-width="2" points="275.18,-116.94 281.02,-108.1 270.94,-111.37 275.18,-116.94"/>
</g>
<!-- 4 -->
<g id="node5" class="node">
<title>4</title>
<path fill="none" stroke="#d89556" stroke-width="2" d="M214,-252C214,-252 179,-252 179,-252 173,-252 167,-246 167,-240 167,-240 167,-228 167,-228 167,-222 173,-216 179,-216 179,-216 214,-216 214,-216 220,-216 226,-222 226,-228 226,-228 226,-240 226,-240 226,-246 220,-252 214,-252"/>
<text text-anchor="middle" x="196.5" y="-231.5" font-family="sans" font-size="10.00">mapping</text>
</g>
<!-- 4&#45;&gt;3 -->
<g id="edge9" class="edge">
<title>4&#45;&gt;3</title>
<path fill="none" stroke="grey" stroke-width="2" d="M200.21,-215.7C201.86,-207.98 203.85,-198.71 205.69,-190.11"/>
<polygon fill="grey" stroke="grey" stroke-width="2" points="209.16,-190.62 207.83,-180.1 202.32,-189.15 209.16,-190.62"/>
</g>
<!-- 5 -->
<g id="node6" class="node">
<title>5</title>
<path fill="none" stroke="#d6d856" stroke-width="2" d="M185.5,-324C185.5,-324 147.5,-324 147.5,-324 141.5,-324 135.5,-318 135.5,-312 135.5,-312 135.5,-300 135.5,-300 135.5,-294 141.5,-288 147.5,-288 147.5,-288 185.5,-288 185.5,-288 191.5,-288 197.5,-294 197.5,-300 197.5,-300 197.5,-312 197.5,-312 197.5,-318 191.5,-324 185.5,-324"/>
<text text-anchor="middle" x="166.5" y="-303.5" font-family="sans" font-size="10.00">trimming</text>
</g>
<!-- 5&#45;&gt;4 -->
<g id="edge10" class="edge">
<title>5&#45;&gt;4</title>
<path fill="none" stroke="grey" stroke-width="2" d="M173.92,-287.7C177.29,-279.81 181.37,-270.3 185.12,-261.55"/>
<polygon fill="grey" stroke="grey" stroke-width="2" points="188.45,-262.67 189.17,-252.1 182.01,-259.92 188.45,-262.67"/>
</g>
<!-- 6 -->
<g id="node7" class="node">
<title>6</title>
<path fill="none" stroke="#56d89a" stroke-width="2" d="M139,-396C139,-396 32,-396 32,-396 26,-396 20,-390 20,-384 20,-384 20,-372 20,-372 20,-366 26,-360 32,-360 32,-360 139,-360 139,-360 145,-360 151,-366 151,-372 151,-372 151,-384 151,-384 151,-390 145,-396 139,-396"/>
<text text-anchor="middle" x="85.5" y="-375.5" font-family="sans" font-size="10.00">compresion_sequences</text>
</g>
<!-- 6&#45;&gt;5 -->
<g id="edge11" class="edge">
<title>6&#45;&gt;5</title>
<path fill="none" stroke="grey" stroke-width="2" d="M105.52,-359.7C115.63,-350.97 128.04,-340.24 139.02,-330.75"/>
<polygon fill="grey" stroke="grey" stroke-width="2" points="141.43,-333.29 146.71,-324.1 136.85,-327.99 141.43,-333.29"/>
</g>
<!-- 7 -->
<g id="node8" class="node">
<title>7</title>
<path fill="none" stroke="#d85656" stroke-width="2" d="M139,-468C139,-468 12,-468 12,-468 6,-468 0,-462 0,-456 0,-456 0,-444 0,-444 0,-438 6,-432 12,-432 12,-432 139,-432 139,-432 145,-432 151,-438 151,-444 151,-444 151,-456 151,-456 151,-462 145,-468 139,-468"/>
<text text-anchor="middle" x="75.5" y="-453" font-family="sans" font-size="10.00">telechargement_sequences</text>
<text text-anchor="middle" x="75.5" y="-442" font-family="sans" font-size="10.00">sracode: SRR10379721</text>
</g>
<!-- 7&#45;&gt;6 -->
<g id="edge12" class="edge">
<title>7&#45;&gt;6</title>
<path fill="none" stroke="grey" stroke-width="2" d="M77.97,-431.7C79.07,-423.98 80.4,-414.71 81.63,-406.11"/>
<polygon fill="grey" stroke="grey" stroke-width="2" points="85.11,-406.5 83.06,-396.1 78.18,-405.51 85.11,-406.5"/>
</g>
<!-- 8&#45;&gt;0 -->
<g id="edge2" class="edge">
<title>8&#45;&gt;0</title>
<path fill="none" stroke="grey" stroke-width="2" d="M408.63,-71.88C424.01,-62.52 443.21,-50.83 459.64,-40.83"/>
<polygon fill="grey" stroke="grey" stroke-width="2" points="461.73,-43.65 468.45,-35.47 458.09,-37.67 461.73,-43.65"/>
</g>
<!-- 9 -->
<g id="node10" class="node">
<title>9</title>
<path fill="none" stroke="#97d856" stroke-width="2" d="M330.5,-180C330.5,-180 284.5,-180 284.5,-180 278.5,-180 272.5,-174 272.5,-168 272.5,-168 272.5,-156 272.5,-156 272.5,-150 278.5,-144 284.5,-144 284.5,-144 330.5,-144 330.5,-144 336.5,-144 342.5,-150 342.5,-156 342.5,-156 342.5,-168 342.5,-168 342.5,-174 336.5,-180 330.5,-180"/>
<text text-anchor="middle" x="307.5" y="-159.5" font-family="sans" font-size="10.00">samTobam</text>
</g>
<!-- 9&#45;&gt;8 -->
<g id="edge14" class="edge">
<title>9&#45;&gt;8</title>
<path fill="none" stroke="grey" stroke-width="2" d="M325.54,-143.7C334.56,-135.05 345.62,-124.45 355.44,-115.03"/>
<polygon fill="grey" stroke="grey" stroke-width="2" points="357.87,-117.55 362.66,-108.1 353.02,-112.5 357.87,-117.55"/>
</g>
<!-- 10 -->
<g id="node11" class="node">
<title>10</title>
<path fill="none" stroke="#d89556" stroke-width="2" d="M310,-252C310,-252 275,-252 275,-252 269,-252 263,-246 263,-240 263,-240 263,-228 263,-228 263,-222 269,-216 275,-216 275,-216 310,-216 310,-216 316,-216 322,-222 322,-228 322,-228 322,-240 322,-240 322,-246 316,-252 310,-252"/>
<text text-anchor="middle" x="292.5" y="-231.5" font-family="sans" font-size="10.00">mapping</text>
</g>
<!-- 10&#45;&gt;9 -->
<g id="edge15" class="edge">
<title>10&#45;&gt;9</title>
<path fill="none" stroke="grey" stroke-width="2" d="M296.21,-215.7C297.86,-207.98 299.85,-198.71 301.69,-190.11"/>
<polygon fill="grey" stroke="grey" stroke-width="2" points="305.16,-190.62 303.83,-180.1 298.32,-189.15 305.16,-190.62"/>
</g>
<!-- 11 -->
<g id="node12" class="node">
<title>11</title>
<path fill="none" stroke="#d6d856" stroke-width="2" d="M281.5,-324C281.5,-324 243.5,-324 243.5,-324 237.5,-324 231.5,-318 231.5,-312 231.5,-312 231.5,-300 231.5,-300 231.5,-294 237.5,-288 243.5,-288 243.5,-288 281.5,-288 281.5,-288 287.5,-288 293.5,-294 293.5,-300 293.5,-300 293.5,-312 293.5,-312 293.5,-318 287.5,-324 281.5,-324"/>
<text text-anchor="middle" x="262.5" y="-303.5" font-family="sans" font-size="10.00">trimming</text>
</g>
<!-- 11&#45;&gt;10 -->
<g id="edge16" class="edge">
<title>11&#45;&gt;10</title>
<path fill="none" stroke="grey" stroke-width="2" d="M269.92,-287.7C273.29,-279.81 277.37,-270.3 281.12,-261.55"/>
<polygon fill="grey" stroke="grey" stroke-width="2" points="284.45,-262.67 285.17,-252.1 278.01,-259.92 284.45,-262.67"/>
</g>
<!-- 12 -->
<g id="node13" class="node">
<title>12</title>
<path fill="none" stroke="#56d89a" stroke-width="2" d="M308,-396C308,-396 201,-396 201,-396 195,-396 189,-390 189,-384 189,-384 189,-372 189,-372 189,-366 195,-360 201,-360 201,-360 308,-360 308,-360 314,-360 320,-366 320,-372 320,-372 320,-384 320,-384 320,-390 314,-396 308,-396"/>
<text text-anchor="middle" x="254.5" y="-375.5" font-family="sans" font-size="10.00">compresion_sequences</text>
</g>
<!-- 12&#45;&gt;11 -->
<g id="edge17" class="edge">
<title>12&#45;&gt;11</title>
<path fill="none" stroke="grey" stroke-width="2" d="M256.48,-359.7C257.36,-351.98 258.42,-342.71 259.4,-334.11"/>
<polygon fill="grey" stroke="grey" stroke-width="2" points="262.89,-334.44 260.55,-324.1 255.93,-333.64 262.89,-334.44"/>
</g>
<!-- 13 -->
<g id="node14" class="node">
<title>13</title>
<path fill="none" stroke="#d85656" stroke-width="2" d="M308,-468C308,-468 181,-468 181,-468 175,-468 169,-462 169,-456 169,-456 169,-444 169,-444 169,-438 175,-432 181,-432 181,-432 308,-432 308,-432 314,-432 320,-438 320,-444 320,-444 320,-456 320,-456 320,-462 314,-468 308,-468"/>
<text text-anchor="middle" x="244.5" y="-453" font-family="sans" font-size="10.00">telechargement_sequences</text>
<text text-anchor="middle" x="244.5" y="-442" font-family="sans" font-size="10.00">sracode: SRR10379722</text>
</g>
<!-- 13&#45;&gt;12 -->
<g id="edge18" class="edge">
<title>13&#45;&gt;12</title>
<path fill="none" stroke="grey" stroke-width="2" d="M246.97,-431.7C248.07,-423.98 249.4,-414.71 250.63,-406.11"/>
<polygon fill="grey" stroke="grey" stroke-width="2" points="254.11,-406.5 252.06,-396.1 247.18,-405.51 254.11,-406.5"/>
</g>
<!-- 14&#45;&gt;0 -->
<g id="edge3" class="edge">
<title>14&#45;&gt;0</title>
<path fill="none" stroke="grey" stroke-width="2" d="M466.89,-71.7C471.26,-63.64 476.56,-53.89 481.4,-44.98"/>
<polygon fill="grey" stroke="grey" stroke-width="2" points="484.52,-46.56 486.21,-36.1 478.37,-43.22 484.52,-46.56"/>
</g>
<!-- 15 -->
<g id="node16" class="node">
<title>15</title>
<path fill="none" stroke="#97d856" stroke-width="2" d="M437.5,-180C437.5,-180 391.5,-180 391.5,-180 385.5,-180 379.5,-174 379.5,-168 379.5,-168 379.5,-156 379.5,-156 379.5,-150 385.5,-144 391.5,-144 391.5,-144 437.5,-144 437.5,-144 443.5,-144 449.5,-150 449.5,-156 449.5,-156 449.5,-168 449.5,-168 449.5,-174 443.5,-180 437.5,-180"/>
<text text-anchor="middle" x="414.5" y="-159.5" font-family="sans" font-size="10.00">samTobam</text>
</g>
<!-- 15&#45;&gt;14 -->
<g id="edge20" class="edge">
<title>15&#45;&gt;14</title>
<path fill="none" stroke="grey" stroke-width="2" d="M425.13,-143.7C430.13,-135.56 436.19,-125.69 441.71,-116.7"/>
<polygon fill="grey" stroke="grey" stroke-width="2" points="444.74,-118.46 446.99,-108.1 438.78,-114.79 444.74,-118.46"/>
</g>
<!-- 16 -->
<g id="node17" class="node">
<title>16</title>
<path fill="none" stroke="#d89556" stroke-width="2" d="M431,-252C431,-252 396,-252 396,-252 390,-252 384,-246 384,-240 384,-240 384,-228 384,-228 384,-222 390,-216 396,-216 396,-216 431,-216 431,-216 437,-216 443,-222 443,-228 443,-228 443,-240 443,-240 443,-246 437,-252 431,-252"/>
<text text-anchor="middle" x="413.5" y="-231.5" font-family="sans" font-size="10.00">mapping</text>
</g>
<!-- 16&#45;&gt;15 -->
<g id="edge21" class="edge">
<title>16&#45;&gt;15</title>
<path fill="none" stroke="grey" stroke-width="2" d="M413.75,-215.7C413.86,-207.98 413.99,-198.71 414.11,-190.11"/>
<polygon fill="grey" stroke="grey" stroke-width="2" points="417.61,-190.15 414.26,-180.1 410.61,-190.05 417.61,-190.15"/>
</g>
<!-- 17 -->
<g id="node18" class="node">
<title>17</title>
<path fill="none" stroke="#d6d856" stroke-width="2" d="M432.5,-324C432.5,-324 394.5,-324 394.5,-324 388.5,-324 382.5,-318 382.5,-312 382.5,-312 382.5,-300 382.5,-300 382.5,-294 388.5,-288 394.5,-288 394.5,-288 432.5,-288 432.5,-288 438.5,-288 444.5,-294 444.5,-300 444.5,-300 444.5,-312 444.5,-312 444.5,-318 438.5,-324 432.5,-324"/>
<text text-anchor="middle" x="413.5" y="-303.5" font-family="sans" font-size="10.00">trimming</text>
</g>
<!-- 17&#45;&gt;16 -->
<g id="edge22" class="edge">
<title>17&#45;&gt;16</title>
<path fill="none" stroke="grey" stroke-width="2" d="M413.5,-287.7C413.5,-279.98 413.5,-270.71 413.5,-262.11"/>
<polygon fill="grey" stroke="grey" stroke-width="2" points="417,-262.1 413.5,-252.1 410,-262.1 417,-262.1"/>
</g>
<!-- 18 -->
<g id="node19" class="node">
<title>18</title>
<path fill="none" stroke="#56d89a" stroke-width="2" d="M467,-396C467,-396 360,-396 360,-396 354,-396 348,-390 348,-384 348,-384 348,-372 348,-372 348,-366 354,-360 360,-360 360,-360 467,-360 467,-360 473,-360 479,-366 479,-372 479,-372 479,-384 479,-384 479,-390 473,-396 467,-396"/>
<text text-anchor="middle" x="413.5" y="-375.5" font-family="sans" font-size="10.00">compresion_sequences</text>
</g>
<!-- 18&#45;&gt;17 -->
<g id="edge23" class="edge">
<title>18&#45;&gt;17</title>
<path fill="none" stroke="grey" stroke-width="2" d="M413.5,-359.7C413.5,-351.98 413.5,-342.71 413.5,-334.11"/>
<polygon fill="grey" stroke="grey" stroke-width="2" points="417,-334.1 413.5,-324.1 410,-334.1 417,-334.1"/>
</g>
<!-- 19 -->
<g id="node20" class="node">
<title>19</title>
<path fill="none" stroke="#d85656" stroke-width="2" d="M477,-468C477,-468 350,-468 350,-468 344,-468 338,-462 338,-456 338,-456 338,-444 338,-444 338,-438 344,-432 350,-432 350,-432 477,-432 477,-432 483,-432 489,-438 489,-444 489,-444 489,-456 489,-456 489,-462 483,-468 477,-468"/>
<text text-anchor="middle" x="413.5" y="-453" font-family="sans" font-size="10.00">telechargement_sequences</text>
<text text-anchor="middle" x="413.5" y="-442" font-family="sans" font-size="10.00">sracode: SRR10379723</text>
</g>
<!-- 19&#45;&gt;18 -->
<g id="edge24" class="edge">
<title>19&#45;&gt;18</title>
<path fill="none" stroke="grey" stroke-width="2" d="M413.5,-431.7C413.5,-423.98 413.5,-414.71 413.5,-406.11"/>
<polygon fill="grey" stroke="grey" stroke-width="2" points="417,-406.1 413.5,-396.1 410,-406.1 417,-406.1"/>
</g>
<!-- 20&#45;&gt;0 -->
<g id="edge4" class="edge">
<title>20&#45;&gt;0</title>
<path fill="none" stroke="grey" stroke-width="2" d="M524.86,-71.7C520.37,-63.64 514.94,-53.89 509.98,-44.98"/>
<polygon fill="grey" stroke="grey" stroke-width="2" points="512.95,-43.14 505.03,-36.1 506.84,-46.54 512.95,-43.14"/>
</g>
<!-- 21 -->
<g id="node22" class="node">
<title>21</title>
<path fill="none" stroke="#97d856" stroke-width="2" d="M600.5,-180C600.5,-180 554.5,-180 554.5,-180 548.5,-180 542.5,-174 542.5,-168 542.5,-168 542.5,-156 542.5,-156 542.5,-150 548.5,-144 554.5,-144 554.5,-144 600.5,-144 600.5,-144 606.5,-144 612.5,-150 612.5,-156 612.5,-156 612.5,-168 612.5,-168 612.5,-174 606.5,-180 600.5,-180"/>
<text text-anchor="middle" x="577.5" y="-159.5" font-family="sans" font-size="10.00">samTobam</text>
</g>
<!-- 21&#45;&gt;20 -->
<g id="edge26" class="edge">
<title>21&#45;&gt;20</title>
<path fill="none" stroke="grey" stroke-width="2" d="M566.87,-143.7C561.87,-135.56 555.81,-125.69 550.29,-116.7"/>
<polygon fill="grey" stroke="grey" stroke-width="2" points="553.22,-114.79 545.01,-108.1 547.26,-118.46 553.22,-114.79"/>
</g>
<!-- 22 -->
<g id="node23" class="node">
<title>22</title>
<path fill="none" stroke="#d89556" stroke-width="2" d="M595,-252C595,-252 560,-252 560,-252 554,-252 548,-246 548,-240 548,-240 548,-228 548,-228 548,-222 554,-216 560,-216 560,-216 595,-216 595,-216 601,-216 607,-222 607,-228 607,-228 607,-240 607,-240 607,-246 601,-252 595,-252"/>
<text text-anchor="middle" x="577.5" y="-231.5" font-family="sans" font-size="10.00">mapping</text>
</g>
<!-- 22&#45;&gt;21 -->
<g id="edge27" class="edge">
<title>22&#45;&gt;21</title>
<path fill="none" stroke="grey" stroke-width="2" d="M577.5,-215.7C577.5,-207.98 577.5,-198.71 577.5,-190.11"/>
<polygon fill="grey" stroke="grey" stroke-width="2" points="581,-190.1 577.5,-180.1 574,-190.1 581,-190.1"/>
</g>
<!-- 23 -->
<g id="node24" class="node">
<title>23</title>
<path fill="none" stroke="#d6d856" stroke-width="2" d="M596.5,-324C596.5,-324 558.5,-324 558.5,-324 552.5,-324 546.5,-318 546.5,-312 546.5,-312 546.5,-300 546.5,-300 546.5,-294 552.5,-288 558.5,-288 558.5,-288 596.5,-288 596.5,-288 602.5,-288 608.5,-294 608.5,-300 608.5,-300 608.5,-312 608.5,-312 608.5,-318 602.5,-324 596.5,-324"/>
<text text-anchor="middle" x="577.5" y="-303.5" font-family="sans" font-size="10.00">trimming</text>
</g>
<!-- 23&#45;&gt;22 -->
<g id="edge28" class="edge">
<title>23&#45;&gt;22</title>
<path fill="none" stroke="grey" stroke-width="2" d="M577.5,-287.7C577.5,-279.98 577.5,-270.71 577.5,-262.11"/>
<polygon fill="grey" stroke="grey" stroke-width="2" points="581,-262.1 577.5,-252.1 574,-262.1 581,-262.1"/>
</g>
<!-- 24 -->
<g id="node25" class="node">
<title>24</title>
<path fill="none" stroke="#56d89a" stroke-width="2" d="M635,-396C635,-396 528,-396 528,-396 522,-396 516,-390 516,-384 516,-384 516,-372 516,-372 516,-366 522,-360 528,-360 528,-360 635,-360 635,-360 641,-360 647,-366 647,-372 647,-372 647,-384 647,-384 647,-390 641,-396 635,-396"/>
<text text-anchor="middle" x="581.5" y="-375.5" font-family="sans" font-size="10.00">compresion_sequences</text>
</g>
<!-- 24&#45;&gt;23 -->
<g id="edge29" class="edge">
<title>24&#45;&gt;23</title>
<path fill="none" stroke="grey" stroke-width="2" d="M580.51,-359.7C580.07,-351.98 579.54,-342.71 579.05,-334.11"/>
<polygon fill="grey" stroke="grey" stroke-width="2" points="582.54,-333.89 578.48,-324.1 575.55,-334.29 582.54,-333.89"/>
</g>
<!-- 25 -->
<g id="node26" class="node">
<title>25</title>
<path fill="none" stroke="#d85656" stroke-width="2" d="M646,-468C646,-468 519,-468 519,-468 513,-468 507,-462 507,-456 507,-456 507,-444 507,-444 507,-438 513,-432 519,-432 519,-432 646,-432 646,-432 652,-432 658,-438 658,-444 658,-444 658,-456 658,-456 658,-462 652,-468 646,-468"/>
<text text-anchor="middle" x="582.5" y="-453" font-family="sans" font-size="10.00">telechargement_sequences</text>
<text text-anchor="middle" x="582.5" y="-442" font-family="sans" font-size="10.00">sracode: SRR10379724</text>
</g>
<!-- 25&#45;&gt;24 -->
<g id="edge30" class="edge">
<title>25&#45;&gt;24</title>
<path fill="none" stroke="grey" stroke-width="2" d="M582.25,-431.7C582.14,-423.98 582.01,-414.71 581.89,-406.11"/>
<polygon fill="grey" stroke="grey" stroke-width="2" points="585.39,-406.05 581.74,-396.1 578.39,-406.15 585.39,-406.05"/>
</g>
<!-- 26&#45;&gt;0 -->
<g id="edge5" class="edge">
<title>26&#45;&gt;0</title>
<path fill="none" stroke="grey" stroke-width="2" d="M583.12,-71.88C567.62,-62.52 548.25,-50.83 531.67,-40.83"/>
<polygon fill="grey" stroke="grey" stroke-width="2" points="533.16,-37.64 522.79,-35.47 529.54,-43.63 533.16,-37.64"/>
</g>
<!-- 27 -->
<g id="node28" class="node">
<title>27</title>
<path fill="none" stroke="#97d856" stroke-width="2" d="M716.5,-180C716.5,-180 670.5,-180 670.5,-180 664.5,-180 658.5,-174 658.5,-168 658.5,-168 658.5,-156 658.5,-156 658.5,-150 664.5,-144 670.5,-144 670.5,-144 716.5,-144 716.5,-144 722.5,-144 728.5,-150 728.5,-156 728.5,-156 728.5,-168 728.5,-168 728.5,-174 722.5,-180 716.5,-180"/>
<text text-anchor="middle" x="693.5" y="-159.5" font-family="sans" font-size="10.00">samTobam</text>
</g>
<!-- 27&#45;&gt;26 -->
<g id="edge32" class="edge">
<title>27&#45;&gt;26</title>
<path fill="none" stroke="grey" stroke-width="2" d="M673.23,-143.7C663,-134.97 650.44,-124.24 639.32,-114.75"/>
<polygon fill="grey" stroke="grey" stroke-width="2" points="641.41,-111.94 631.54,-108.1 636.87,-117.26 641.41,-111.94"/>
</g>
<!-- 28 -->
<g id="node29" class="node">
<title>28</title>
<path fill="none" stroke="#d89556" stroke-width="2" d="M722,-252C722,-252 687,-252 687,-252 681,-252 675,-246 675,-240 675,-240 675,-228 675,-228 675,-222 681,-216 687,-216 687,-216 722,-216 722,-216 728,-216 734,-222 734,-228 734,-228 734,-240 734,-240 734,-246 728,-252 722,-252"/>
<text text-anchor="middle" x="704.5" y="-231.5" font-family="sans" font-size="10.00">mapping</text>
</g>
<!-- 28&#45;&gt;27 -->
<g id="edge33" class="edge">
<title>28&#45;&gt;27</title>
<path fill="none" stroke="grey" stroke-width="2" d="M701.78,-215.7C700.57,-207.98 699.11,-198.71 697.76,-190.11"/>
<polygon fill="grey" stroke="grey" stroke-width="2" points="701.2,-189.44 696.19,-180.1 694.28,-190.53 701.2,-189.44"/>
</g>
<!-- 29 -->
<g id="node30" class="node">
<title>29</title>
<path fill="none" stroke="#d6d856" stroke-width="2" d="M734.5,-324C734.5,-324 696.5,-324 696.5,-324 690.5,-324 684.5,-318 684.5,-312 684.5,-312 684.5,-300 684.5,-300 684.5,-294 690.5,-288 696.5,-288 696.5,-288 734.5,-288 734.5,-288 740.5,-288 746.5,-294 746.5,-300 746.5,-300 746.5,-312 746.5,-312 746.5,-318 740.5,-324 734.5,-324"/>
<text text-anchor="middle" x="715.5" y="-303.5" font-family="sans" font-size="10.00">trimming</text>
</g>
<!-- 29&#45;&gt;28 -->
<g id="edge34" class="edge">
<title>29&#45;&gt;28</title>
<path fill="none" stroke="grey" stroke-width="2" d="M712.78,-287.7C711.57,-279.98 710.11,-270.71 708.76,-262.11"/>
<polygon fill="grey" stroke="grey" stroke-width="2" points="712.2,-261.44 707.19,-252.1 705.28,-262.53 712.2,-261.44"/>
</g>
<!-- 30 -->
<g id="node31" class="node">
<title>30</title>
<path fill="none" stroke="#56d89a" stroke-width="2" d="M794,-396C794,-396 687,-396 687,-396 681,-396 675,-390 675,-384 675,-384 675,-372 675,-372 675,-366 681,-360 687,-360 687,-360 794,-360 794,-360 800,-360 806,-366 806,-372 806,-372 806,-384 806,-384 806,-390 800,-396 794,-396"/>
<text text-anchor="middle" x="740.5" y="-375.5" font-family="sans" font-size="10.00">compresion_sequences</text>
</g>
<!-- 30&#45;&gt;29 -->
<g id="edge35" class="edge">
<title>30&#45;&gt;29</title>
<path fill="none" stroke="grey" stroke-width="2" d="M734.32,-359.7C731.5,-351.81 728.11,-342.3 724.98,-333.55"/>
<polygon fill="grey" stroke="grey" stroke-width="2" points="728.27,-332.34 721.61,-324.1 721.68,-334.7 728.27,-332.34"/>
</g>
<!-- 31 -->
<g id="node32" class="node">
<title>31</title>
<path fill="none" stroke="#d85656" stroke-width="2" d="M815,-468C815,-468 688,-468 688,-468 682,-468 676,-462 676,-456 676,-456 676,-444 676,-444 676,-438 682,-432 688,-432 688,-432 815,-432 815,-432 821,-432 827,-438 827,-444 827,-444 827,-456 827,-456 827,-462 821,-468 815,-468"/>
<text text-anchor="middle" x="751.5" y="-453" font-family="sans" font-size="10.00">telechargement_sequences</text>
<text text-anchor="middle" x="751.5" y="-442" font-family="sans" font-size="10.00">sracode: SRR10379725</text>
</g>
<!-- 31&#45;&gt;30 -->
<g id="edge36" class="edge">
<title>31&#45;&gt;30</title>
<path fill="none" stroke="grey" stroke-width="2" d="M748.78,-431.7C747.57,-423.98 746.11,-414.71 744.76,-406.11"/>
<polygon fill="grey" stroke="grey" stroke-width="2" points="748.2,-405.44 743.19,-396.1 741.28,-406.53 748.2,-405.44"/>
</g>
<!-- 32&#45;&gt;0 -->
<g id="edge6" class="edge">
<title>32&#45;&gt;0</title>
<path fill="none" stroke="grey" stroke-width="2" d="M658.74,-75.38C655.97,-74.2 653.19,-73.06 650.5,-72 610.62,-56.3 563.99,-40.72 532.36,-30.56"/>
<polygon fill="grey" stroke="grey" stroke-width="2" points="533.24,-27.16 522.65,-27.45 531.11,-33.83 533.24,-27.16"/>
</g>
<!-- 33 -->
<g id="node34" class="node">
<title>33</title>
<path fill="none" stroke="#97d856" stroke-width="2" d="M818.5,-180C818.5,-180 772.5,-180 772.5,-180 766.5,-180 760.5,-174 760.5,-168 760.5,-168 760.5,-156 760.5,-156 760.5,-150 766.5,-144 772.5,-144 772.5,-144 818.5,-144 818.5,-144 824.5,-144 830.5,-150 830.5,-156 830.5,-156 830.5,-168 830.5,-168 830.5,-174 824.5,-180 818.5,-180"/>
<text text-anchor="middle" x="795.5" y="-159.5" font-family="sans" font-size="10.00">samTobam</text>
</g>
<!-- 33&#45;&gt;32 -->
<g id="edge38" class="edge">
<title>33&#45;&gt;32</title>
<path fill="none" stroke="grey" stroke-width="2" d="M769.32,-143.88C755.46,-134.81 738.26,-123.55 723.29,-113.76"/>
<polygon fill="grey" stroke="grey" stroke-width="2" points="725.06,-110.74 714.78,-108.19 721.23,-116.59 725.06,-110.74"/>
</g>
<!-- 34 -->
<g id="node35" class="node">
<title>34</title>
<path fill="none" stroke="#d89556" stroke-width="2" d="M817,-252C817,-252 782,-252 782,-252 776,-252 770,-246 770,-240 770,-240 770,-228 770,-228 770,-222 776,-216 782,-216 782,-216 817,-216 817,-216 823,-216 829,-222 829,-228 829,-228 829,-240 829,-240 829,-246 823,-252 817,-252"/>
<text text-anchor="middle" x="799.5" y="-231.5" font-family="sans" font-size="10.00">mapping</text>
</g>
<!-- 34&#45;&gt;33 -->
<g id="edge39" class="edge">
<title>34&#45;&gt;33</title>
<path fill="none" stroke="grey" stroke-width="2" d="M798.51,-215.7C798.07,-207.98 797.54,-198.71 797.05,-190.11"/>
<polygon fill="grey" stroke="grey" stroke-width="2" points="800.54,-189.89 796.48,-180.1 793.55,-190.29 800.54,-189.89"/>
</g>
<!-- 35 -->
<g id="node36" class="node">
<title>35</title>
<path fill="none" stroke="#d6d856" stroke-width="2" d="M825.5,-324C825.5,-324 787.5,-324 787.5,-324 781.5,-324 775.5,-318 775.5,-312 775.5,-312 775.5,-300 775.5,-300 775.5,-294 781.5,-288 787.5,-288 787.5,-288 825.5,-288 825.5,-288 831.5,-288 837.5,-294 837.5,-300 837.5,-300 837.5,-312 837.5,-312 837.5,-318 831.5,-324 825.5,-324"/>
<text text-anchor="middle" x="806.5" y="-303.5" font-family="sans" font-size="10.00">trimming</text>
</g>
<!-- 35&#45;&gt;34 -->
<g id="edge40" class="edge">
<title>35&#45;&gt;34</title>
<path fill="none" stroke="grey" stroke-width="2" d="M804.77,-287.7C804,-279.98 803.07,-270.71 802.21,-262.11"/>
<polygon fill="grey" stroke="grey" stroke-width="2" points="805.69,-261.71 801.21,-252.1 798.72,-262.4 805.69,-261.71"/>
</g>
<!-- 36 -->
<g id="node37" class="node">
<title>36</title>
<path fill="none" stroke="#56d89a" stroke-width="2" d="M958,-396C958,-396 851,-396 851,-396 845,-396 839,-390 839,-384 839,-384 839,-372 839,-372 839,-366 845,-360 851,-360 851,-360 958,-360 958,-360 964,-360 970,-366 970,-372 970,-372 970,-384 970,-384 970,-390 964,-396 958,-396"/>
<text text-anchor="middle" x="904.5" y="-375.5" font-family="sans" font-size="10.00">compresion_sequences</text>
</g>
<!-- 36&#45;&gt;35 -->
<g id="edge41" class="edge">
<title>36&#45;&gt;35</title>
<path fill="none" stroke="grey" stroke-width="2" d="M880.53,-359.88C867.95,-350.89 852.37,-339.76 838.75,-330.03"/>
<polygon fill="grey" stroke="grey" stroke-width="2" points="840.74,-327.15 830.57,-324.19 836.67,-332.85 840.74,-327.15"/>
</g>
<!-- 37 -->
<g id="node38" class="node">
<title>37</title>
<path fill="none" stroke="#d85656" stroke-width="2" d="M984,-468C984,-468 857,-468 857,-468 851,-468 845,-462 845,-456 845,-456 845,-444 845,-444 845,-438 851,-432 857,-432 857,-432 984,-432 984,-432 990,-432 996,-438 996,-444 996,-444 996,-456 996,-456 996,-462 990,-468 984,-468"/>
<text text-anchor="middle" x="920.5" y="-453" font-family="sans" font-size="10.00">telechargement_sequences</text>
<text text-anchor="middle" x="920.5" y="-442" font-family="sans" font-size="10.00">sracode: SRR10379726</text>
</g>
<!-- 37&#45;&gt;36 -->
<g id="edge42" class="edge">
<title>37&#45;&gt;36</title>
<path fill="none" stroke="grey" stroke-width="2" d="M916.54,-431.7C914.78,-423.98 912.66,-414.71 910.7,-406.11"/>
<polygon fill="grey" stroke="grey" stroke-width="2" points="914.05,-405.07 908.41,-396.1 907.23,-406.63 914.05,-405.07"/>
</g>
</g>
</svg>
