<?xml version="1.0" encoding="UTF-8" standalone="no"?>
<!DOCTYPE svg PUBLIC "-//W3C//DTD SVG 1.1//EN"
 "http://www.w3.org/Graphics/SVG/1.1/DTD/svg11.dtd">
<!-- Generated by graphviz version 2.50.0 (0)
 -->
<!-- Title: snakemake_dag Pages: 1 -->
<svg width="1004pt" height="188pt"
 viewBox="0.00 0.00 1004.00 188.00" xmlns="http://www.w3.org/2000/svg" xmlns:xlink="http://www.w3.org/1999/xlink">
<g id="graph0" class="graph" transform="scale(1 1) rotate(0) translate(4 184)">
<title>snakemake_dag</title>
<polygon fill="white" stroke="transparent" points="-4,4 -4,-184 1000,-184 1000,4 -4,4"/>
<!-- 0 -->
<g id="node1" class="node">
<title>0</title>
<path fill="none" stroke="#d85656" stroke-width="2" d="M510.5,-36C510.5,-36 480.5,-36 480.5,-36 474.5,-36 468.5,-30 468.5,-24 468.5,-24 468.5,-12 468.5,-12 468.5,-6 474.5,0 480.5,0 480.5,0 510.5,0 510.5,0 516.5,0 522.5,-6 522.5,-12 522.5,-12 522.5,-24 522.5,-24 522.5,-30 516.5,-36 510.5,-36"/>
<text text-anchor="middle" x="495.5" y="-15.5" font-family="sans" font-size="10.00">all</text>
</g>
<!-- 1 -->
<g id="node2" class="node">
<title>1</title>
<path fill="none" stroke="#afd856" stroke-width="2" d="M139,-108C139,-108 32,-108 32,-108 26,-108 20,-102 20,-96 20,-96 20,-84 20,-84 20,-78 26,-72 32,-72 32,-72 139,-72 139,-72 145,-72 151,-78 151,-84 151,-84 151,-96 151,-96 151,-102 145,-108 139,-108"/>
<text text-anchor="middle" x="85.5" y="-87.5" font-family="sans" font-size="10.00">compresion_sequences</text>
</g>
<!-- 1&#45;&gt;0 -->
<g id="edge1" class="edge">
<title>1&#45;&gt;0</title>
<path fill="none" stroke="grey" stroke-width="2" d="M151.15,-77.16C160.99,-75.41 171.01,-73.65 180.5,-72 280.75,-54.6 399.11,-34.91 458.13,-25.16"/>
<polygon fill="grey" stroke="grey" stroke-width="2" points="458.8,-28.6 468.1,-23.51 457.66,-21.69 458.8,-28.6"/>
</g>
<!-- 2 -->
<g id="node3" class="node">
<title>2</title>
<path fill="none" stroke="#56d8a9" stroke-width="2" d="M139,-180C139,-180 12,-180 12,-180 6,-180 0,-174 0,-168 0,-168 0,-156 0,-156 0,-150 6,-144 12,-144 12,-144 139,-144 139,-144 145,-144 151,-150 151,-156 151,-156 151,-168 151,-168 151,-174 145,-180 139,-180"/>
<text text-anchor="middle" x="75.5" y="-165" font-family="sans" font-size="10.00">telechargement_sequences</text>
<text text-anchor="middle" x="75.5" y="-154" font-family="sans" font-size="10.00">sracode: SRR10379721</text>
</g>
<!-- 2&#45;&gt;1 -->
<g id="edge7" class="edge">
<title>2&#45;&gt;1</title>
<path fill="none" stroke="grey" stroke-width="2" d="M77.97,-143.7C79.07,-135.98 80.4,-126.71 81.63,-118.11"/>
<polygon fill="grey" stroke="grey" stroke-width="2" points="85.11,-118.5 83.06,-108.1 78.18,-117.51 85.11,-118.5"/>
</g>
<!-- 3 -->
<g id="node4" class="node">
<title>3</title>
<path fill="none" stroke="#afd856" stroke-width="2" d="M308,-108C308,-108 201,-108 201,-108 195,-108 189,-102 189,-96 189,-96 189,-84 189,-84 189,-78 195,-72 201,-72 201,-72 308,-72 308,-72 314,-72 320,-78 320,-84 320,-84 320,-96 320,-96 320,-102 314,-108 308,-108"/>
<text text-anchor="middle" x="254.5" y="-87.5" font-family="sans" font-size="10.00">compresion_sequences</text>
</g>
<!-- 3&#45;&gt;0 -->
<g id="edge2" class="edge">
<title>3&#45;&gt;0</title>
<path fill="none" stroke="grey" stroke-width="2" d="M313.15,-71.97C358.42,-58.81 419.68,-41.02 458.4,-29.78"/>
<polygon fill="grey" stroke="grey" stroke-width="2" points="459.59,-33.08 468.21,-26.93 457.63,-26.35 459.59,-33.08"/>
</g>
<!-- 4 -->
<g id="node5" class="node">
<title>4</title>
<path fill="none" stroke="#56d8a9" stroke-width="2" d="M308,-180C308,-180 181,-180 181,-180 175,-180 169,-174 169,-168 169,-168 169,-156 169,-156 169,-150 175,-144 181,-144 181,-144 308,-144 308,-144 314,-144 320,-150 320,-156 320,-156 320,-168 320,-168 320,-174 314,-180 308,-180"/>
<text text-anchor="middle" x="244.5" y="-165" font-family="sans" font-size="10.00">telechargement_sequences</text>
<text text-anchor="middle" x="244.5" y="-154" font-family="sans" font-size="10.00">sracode: SRR10379722</text>
</g>
<!-- 4&#45;&gt;3 -->
<g id="edge8" class="edge">
<title>4&#45;&gt;3</title>
<path fill="none" stroke="grey" stroke-width="2" d="M246.97,-143.7C248.07,-135.98 249.4,-126.71 250.63,-118.11"/>
<polygon fill="grey" stroke="grey" stroke-width="2" points="254.11,-118.5 252.06,-108.1 247.18,-117.51 254.11,-118.5"/>
</g>
<!-- 5 -->
<g id="node6" class="node">
<title>5</title>
<path fill="none" stroke="#afd856" stroke-width="2" d="M471,-108C471,-108 364,-108 364,-108 358,-108 352,-102 352,-96 352,-96 352,-84 352,-84 352,-78 358,-72 364,-72 364,-72 471,-72 471,-72 477,-72 483,-78 483,-84 483,-84 483,-96 483,-96 483,-102 477,-108 471,-108"/>
<text text-anchor="middle" x="417.5" y="-87.5" font-family="sans" font-size="10.00">compresion_sequences</text>
</g>
<!-- 5&#45;&gt;0 -->
<g id="edge3" class="edge">
<title>5&#45;&gt;0</title>
<path fill="none" stroke="grey" stroke-width="2" d="M436.78,-71.7C446.42,-63.05 458.23,-52.45 468.73,-43.03"/>
<polygon fill="grey" stroke="grey" stroke-width="2" points="471.34,-45.39 476.44,-36.1 466.66,-40.18 471.34,-45.39"/>
</g>
<!-- 6 -->
<g id="node7" class="node">
<title>6</title>
<path fill="none" stroke="#56d8a9" stroke-width="2" d="M477,-180C477,-180 350,-180 350,-180 344,-180 338,-174 338,-168 338,-168 338,-156 338,-156 338,-150 344,-144 350,-144 350,-144 477,-144 477,-144 483,-144 489,-150 489,-156 489,-156 489,-168 489,-168 489,-174 483,-180 477,-180"/>
<text text-anchor="middle" x="413.5" y="-165" font-family="sans" font-size="10.00">telechargement_sequences</text>
<text text-anchor="middle" x="413.5" y="-154" font-family="sans" font-size="10.00">sracode: SRR10379723</text>
</g>
<!-- 6&#45;&gt;5 -->
<g id="edge9" class="edge">
<title>6&#45;&gt;5</title>
<path fill="none" stroke="grey" stroke-width="2" d="M414.49,-143.7C414.93,-135.98 415.46,-126.71 415.95,-118.11"/>
<polygon fill="grey" stroke="grey" stroke-width="2" points="419.45,-118.29 416.52,-108.1 412.46,-117.89 419.45,-118.29"/>
</g>
<!-- 7 -->
<g id="node8" class="node">
<title>7</title>
<path fill="none" stroke="#afd856" stroke-width="2" d="M627,-108C627,-108 520,-108 520,-108 514,-108 508,-102 508,-96 508,-96 508,-84 508,-84 508,-78 514,-72 520,-72 520,-72 627,-72 627,-72 633,-72 639,-78 639,-84 639,-84 639,-96 639,-96 639,-102 633,-108 627,-108"/>
<text text-anchor="middle" x="573.5" y="-87.5" font-family="sans" font-size="10.00">compresion_sequences</text>
</g>
<!-- 7&#45;&gt;0 -->
<g id="edge4" class="edge">
<title>7&#45;&gt;0</title>
<path fill="none" stroke="grey" stroke-width="2" d="M554.22,-71.7C544.58,-63.05 532.77,-52.45 522.27,-43.03"/>
<polygon fill="grey" stroke="grey" stroke-width="2" points="524.34,-40.18 514.56,-36.1 519.66,-45.39 524.34,-40.18"/>
</g>
<!-- 8 -->
<g id="node9" class="node">
<title>8</title>
<path fill="none" stroke="#56d8a9" stroke-width="2" d="M646,-180C646,-180 519,-180 519,-180 513,-180 507,-174 507,-168 507,-168 507,-156 507,-156 507,-150 513,-144 519,-144 519,-144 646,-144 646,-144 652,-144 658,-150 658,-156 658,-156 658,-168 658,-168 658,-174 652,-180 646,-180"/>
<text text-anchor="middle" x="582.5" y="-165" font-family="sans" font-size="10.00">telechargement_sequences</text>
<text text-anchor="middle" x="582.5" y="-154" font-family="sans" font-size="10.00">sracode: SRR10379724</text>
</g>
<!-- 8&#45;&gt;7 -->
<g id="edge10" class="edge">
<title>8&#45;&gt;7</title>
<path fill="none" stroke="grey" stroke-width="2" d="M580.28,-143.7C579.28,-135.98 578.09,-126.71 576.99,-118.11"/>
<polygon fill="grey" stroke="grey" stroke-width="2" points="580.45,-117.58 575.7,-108.1 573.5,-118.47 580.45,-117.58"/>
</g>
<!-- 9 -->
<g id="node10" class="node">
<title>9</title>
<path fill="none" stroke="#afd856" stroke-width="2" d="M791,-108C791,-108 684,-108 684,-108 678,-108 672,-102 672,-96 672,-96 672,-84 672,-84 672,-78 678,-72 684,-72 684,-72 791,-72 791,-72 797,-72 803,-78 803,-84 803,-84 803,-96 803,-96 803,-102 797,-108 791,-108"/>
<text text-anchor="middle" x="737.5" y="-87.5" font-family="sans" font-size="10.00">compresion_sequences</text>
</g>
<!-- 9&#45;&gt;0 -->
<g id="edge5" class="edge">
<title>9&#45;&gt;0</title>
<path fill="none" stroke="grey" stroke-width="2" d="M678.61,-71.97C633.02,-58.78 571.28,-40.92 532.42,-29.68"/>
<polygon fill="grey" stroke="grey" stroke-width="2" points="533.16,-26.25 522.58,-26.83 531.22,-32.97 533.16,-26.25"/>
</g>
<!-- 10 -->
<g id="node11" class="node">
<title>10</title>
<path fill="none" stroke="#56d8a9" stroke-width="2" d="M815,-180C815,-180 688,-180 688,-180 682,-180 676,-174 676,-168 676,-168 676,-156 676,-156 676,-150 682,-144 688,-144 688,-144 815,-144 815,-144 821,-144 827,-150 827,-156 827,-156 827,-168 827,-168 827,-174 821,-180 815,-180"/>
<text text-anchor="middle" x="751.5" y="-165" font-family="sans" font-size="10.00">telechargement_sequences</text>
<text text-anchor="middle" x="751.5" y="-154" font-family="sans" font-size="10.00">sracode: SRR10379725</text>
</g>
<!-- 10&#45;&gt;9 -->
<g id="edge11" class="edge">
<title>10&#45;&gt;9</title>
<path fill="none" stroke="grey" stroke-width="2" d="M748.04,-143.7C746.5,-135.98 744.64,-126.71 742.92,-118.11"/>
<polygon fill="grey" stroke="grey" stroke-width="2" points="746.31,-117.22 740.92,-108.1 739.45,-118.6 746.31,-117.22"/>
</g>
<!-- 11 -->
<g id="node12" class="node">
<title>11</title>
<path fill="none" stroke="#afd856" stroke-width="2" d="M970,-108C970,-108 863,-108 863,-108 857,-108 851,-102 851,-96 851,-96 851,-84 851,-84 851,-78 857,-72 863,-72 863,-72 970,-72 970,-72 976,-72 982,-78 982,-84 982,-84 982,-96 982,-96 982,-102 976,-108 970,-108"/>
<text text-anchor="middle" x="916.5" y="-87.5" font-family="sans" font-size="10.00">compresion_sequences</text>
</g>
<!-- 11&#45;&gt;0 -->
<g id="edge6" class="edge">
<title>11&#45;&gt;0</title>
<path fill="none" stroke="grey" stroke-width="2" d="M850.72,-78.06C761.23,-63.18 604.1,-37.06 532.69,-25.18"/>
<polygon fill="grey" stroke="grey" stroke-width="2" points="533.24,-21.73 522.8,-23.54 532.09,-28.63 533.24,-21.73"/>
</g>
<!-- 12 -->
<g id="node13" class="node">
<title>12</title>
<path fill="none" stroke="#56d8a9" stroke-width="2" d="M984,-180C984,-180 857,-180 857,-180 851,-180 845,-174 845,-168 845,-168 845,-156 845,-156 845,-150 851,-144 857,-144 857,-144 984,-144 984,-144 990,-144 996,-150 996,-156 996,-156 996,-168 996,-168 996,-174 990,-180 984,-180"/>
<text text-anchor="middle" x="920.5" y="-165" font-family="sans" font-size="10.00">telechargement_sequences</text>
<text text-anchor="middle" x="920.5" y="-154" font-family="sans" font-size="10.00">sracode: SRR10379726</text>
</g>
<!-- 12&#45;&gt;11 -->
<g id="edge12" class="edge">
<title>12&#45;&gt;11</title>
<path fill="none" stroke="grey" stroke-width="2" d="M919.51,-143.7C919.07,-135.98 918.54,-126.71 918.05,-118.11"/>
<polygon fill="grey" stroke="grey" stroke-width="2" points="921.54,-117.89 917.48,-108.1 914.55,-118.29 921.54,-117.89"/>
</g>
</g>
</svg>
